<?xml version="1.0" encoding="utf-8"?>
<!-- Generator: Adobe Illustrator 18.0.0, SVG Export Plug-In . SVG Version: 6.00 Build 0)  -->
<!DOCTYPE svg PUBLIC "-//W3C//DTD SVG 1.1 Tiny//EN" "http://www.w3.org/Graphics/SVG/1.1/DTD/svg11-tiny.dtd">
<svg version="1.1" baseProfile="tiny" id="Layer_1" xmlns="http://www.w3.org/2000/svg" xmlns:xlink="http://www.w3.org/1999/xlink"
	 x="0px" y="0px" viewBox="0 0 330 330" fill="#fff" xml:space="preserve">
<g>
	<g>
		<g>
			<path d="M52,96.4c-1.9,0-3.7-0.7-5.1-2.1L9.2,56.6c-2.8-2.8-2.8-7.4,0-10.3L46.9,8.7c2.8-2.8,7.4-2.8,10.3,0l37.7,37.7
				c2.8,2.8,2.8,7.4,0,10.3L57.1,94.3C55.7,95.7,53.9,96.4,52,96.4z M24.6,51.5L52,78.9l27.4-27.4L52,24.1L24.6,51.5z"/>
		</g>
		<g>
			<path d="M52,171.7c-1.9,0-3.7-0.7-5.1-2.1L9.2,131.9c-2.8-2.8-2.8-7.4,0-10.3L46.9,84c2.8-2.8,7.4-2.8,10.3,0l37.7,37.7
				c2.8,2.8,2.8,7.4,0,10.3l-37.7,37.7C55.7,171,53.9,171.7,52,171.7z M24.6,126.8L52,154.2l27.4-27.4L52,99.4L24.6,126.8z"/>
		</g>
	</g>
	<g>
		<g>
			<path d="M52,248.1c-1.9,0-3.7-0.7-5.1-2.1L9.2,208.3c-2.8-2.8-2.8-7.4,0-10.3l37.7-37.7c2.8-2.8,7.4-2.8,10.3,0l37.7,37.7
				c2.8,2.8,2.8,7.4,0,10.3L57.1,246C55.7,247.4,53.9,248.1,52,248.1z M24.6,203.2L52,230.6l27.4-27.4L52,175.8L24.6,203.2z"/>
		</g>
		<g>
			<path d="M52,323.4c-1.9,0-3.7-0.7-5.1-2.1L9.2,283.7c-2.8-2.8-2.8-7.4,0-10.3l37.7-37.7c2.8-2.8,7.4-2.8,10.3,0l37.7,37.7
				c2.8,2.8,2.8,7.4,0,10.3l-37.7,37.7C55.7,322.7,53.9,323.4,52,323.4z M24.6,278.5L52,305.9l27.4-27.4L52,251.1L24.6,278.5z"/>
		</g>
	</g>
	<g>
		<g>
			<path d="M127.3,96.4c-1.9,0-3.7-0.7-5.1-2.1L84.5,56.6c-2.8-2.8-2.8-7.4,0-10.3l37.7-37.7c2.8-2.8,7.4-2.8,10.3,0l37.7,37.7
				c2.8,2.8,2.8,7.4,0,10.3l-37.7,37.7C131.1,95.7,129.2,96.4,127.3,96.4z M99.9,51.5l27.4,27.4l27.4-27.4l-27.4-27.4L99.9,51.5z"/>
		</g>
		<g>
			<path d="M127.3,171.7c-1.9,0-3.7-0.7-5.1-2.1l-37.7-37.7c-2.8-2.8-2.8-7.4,0-10.3L122.2,84c2.8-2.8,7.4-2.8,10.3,0l37.7,37.7
				c2.8,2.8,2.8,7.4,0,10.3l-37.7,37.7C131.1,171,129.2,171.7,127.3,171.7z M99.9,126.8l27.4,27.4l27.4-27.4l-27.4-27.4L99.9,126.8z
				"/>
		</g>
	</g>
	<g>
		<g>
			<path d="M127.3,248.1c-1.9,0-3.7-0.7-5.1-2.1l-37.7-37.7c-2.8-2.8-2.8-7.4,0-10.3l37.7-37.7c2.8-2.8,7.4-2.8,10.3,0l37.7,37.7
				c2.8,2.8,2.8,7.4,0,10.3L132.5,246C131.1,247.4,129.2,248.1,127.3,248.1z M99.9,203.2l27.4,27.4l27.4-27.4l-27.4-27.4L99.9,203.2
				z"/>
		</g>
		<g>
			<path d="M127.3,323.4c-1.9,0-3.7-0.7-5.1-2.1l-37.7-37.7c-2.8-2.8-2.8-7.4,0-10.3l37.7-37.7c2.8-2.8,7.4-2.8,10.3,0l37.7,37.7
				c2.8,2.8,2.8,7.4,0,10.3l-37.7,37.7C131.1,322.7,129.2,323.4,127.3,323.4z M99.9,278.5l27.4,27.4l27.4-27.4l-27.4-27.4
				L99.9,278.5z"/>
		</g>
	</g>
	<g>
		<g>
			<path d="M202.7,96.4c-1.9,0-3.7-0.7-5.1-2.1l-37.7-37.7c-2.8-2.8-2.8-7.4,0-10.3l37.7-37.7c2.8-2.8,7.4-2.8,10.3,0l37.7,37.7
				c2.8,2.8,2.8,7.4,0,10.3l-37.7,37.7C206.4,95.7,204.5,96.4,202.7,96.4z M175.3,51.5l27.4,27.4l27.4-27.4l-27.4-27.4L175.3,51.5z"
				/>
		</g>
		<g>
			<path d="M202.7,171.7c-1.9,0-3.7-0.7-5.1-2.1l-37.7-37.7c-2.8-2.8-2.8-7.4,0-10.3L197.5,84c2.8-2.8,7.4-2.8,10.3,0l37.7,37.7
				c2.8,2.8,2.8,7.4,0,10.3l-37.7,37.7C206.4,171,204.5,171.7,202.7,171.7z M175.3,126.8l27.4,27.4l27.4-27.4l-27.4-27.4
				L175.3,126.8z"/>
		</g>
	</g>
	<g>
		<g>
			<path d="M202.7,248.1c-1.9,0-3.7-0.7-5.1-2.1l-37.7-37.7c-2.8-2.8-2.8-7.4,0-10.3l37.7-37.7c2.8-2.8,7.4-2.8,10.3,0l37.7,37.7
				c2.8,2.8,2.8,7.4,0,10.3L207.8,246C206.4,247.4,204.5,248.1,202.7,248.1z M175.3,203.2l27.4,27.4l27.4-27.4l-27.4-27.4
				L175.3,203.2z"/>
		</g>
		<g>
			<path d="M202.7,323.4c-1.9,0-3.7-0.7-5.1-2.1l-37.7-37.7c-2.8-2.8-2.8-7.4,0-10.3l37.7-37.7c2.8-2.8,7.4-2.8,10.3,0l37.7,37.7
				c2.8,2.8,2.8,7.4,0,10.3l-37.7,37.7C206.4,322.7,204.5,323.4,202.7,323.4z M175.3,278.5l27.4,27.4l27.4-27.4l-27.4-27.4
				L175.3,278.5z"/>
		</g>
	</g>
	<g>
		<g>
			<path d="M278,96.4c-1.9,0-3.7-0.7-5.1-2.1l-37.7-37.7c-2.8-2.8-2.8-7.4,0-10.3l37.7-37.7c2.8-2.8,7.4-2.8,10.3,0l37.7,37.7
				c2.8,2.8,2.8,7.4,0,10.3l-37.7,37.7C281.7,95.7,279.9,96.4,278,96.4z M250.6,51.5L278,78.9l27.4-27.4L278,24.1L250.6,51.5z"/>
		</g>
		<g>
			<path d="M278,171.7c-1.9,0-3.7-0.7-5.1-2.1l-37.7-37.7c-2.8-2.8-2.8-7.4,0-10.3L272.9,84c2.8-2.8,7.4-2.8,10.3,0l37.7,37.7
				c2.8,2.8,2.8,7.4,0,10.3l-37.7,37.7C281.7,171,279.9,171.7,278,171.7z M250.6,126.8l27.4,27.4l27.4-27.4L278,99.4L250.6,126.8z"
				/>
		</g>
	</g>
	<g>
		<g>
			<path d="M278,248.1c-1.9,0-3.7-0.7-5.1-2.1l-37.7-37.7c-2.8-2.8-2.8-7.4,0-10.3l37.7-37.7c2.8-2.8,7.4-2.8,10.3,0l37.7,37.7
				c2.8,2.8,2.8,7.4,0,10.3L283.1,246C281.7,247.4,279.9,248.1,278,248.1z M250.6,203.2l27.4,27.4l27.4-27.4L278,175.8L250.6,203.2z
				"/>
		</g>
		<g>
			<path d="M278,323.4c-1.9,0-3.7-0.7-5.1-2.1l-37.7-37.7c-2.8-2.8-2.8-7.4,0-10.3l37.7-37.7c2.8-2.8,7.4-2.8,10.3,0l37.7,37.7
				c2.8,2.8,2.8,7.4,0,10.3l-37.7,37.7C281.7,322.7,279.9,323.4,278,323.4z M250.6,278.5l27.4,27.4l27.4-27.4L278,251.1L250.6,278.5
				z"/>
		</g>
	</g>
</g>
<g>
	<g>
		<g>
			<path d="M-394.2,214.1c-4.8,0-8.6-3.9-8.6-8.6V-55.7c0-4.8,3.9-8.6,8.6-8.6c4.8,0,8.6,3.9,8.6,8.6v261.1
				C-385.6,210.2-389.5,214.1-394.2,214.1z"/>
		</g>
		<g>
			<path d="M-359.6,214.1c-4.8,0-8.6-3.9-8.6-8.6V-68.2c0-4.8,3.9-8.6,8.6-8.6s8.6,3.9,8.6,8.6v273.6
				C-350.9,210.2-354.8,214.1-359.6,214.1z"/>
		</g>
		<g>
			<path d="M-324.9,214.1c-4.8,0-8.6-3.9-8.6-8.6v-287c0-4.8,3.9-8.6,8.6-8.6c4.8,0,8.6,3.9,8.6,8.6v287
				C-316.2,210.2-320.1,214.1-324.9,214.1z"/>
		</g>
		<g>
			<path d="M-290.2,214.1c-4.8,0-8.6-3.9-8.6-8.6V-68.2c0-4.8,3.9-8.6,8.6-8.6s8.6,3.9,8.6,8.6v273.6
				C-281.6,210.2-285.4,214.1-290.2,214.1z"/>
		</g>
		<g>
			<path d="M-255.5,214.1c-4.8,0-8.6-3.9-8.6-8.6V-55.7c0-4.8,3.9-8.6,8.6-8.6s8.6,3.9,8.6,8.6v261.1
				C-246.9,210.2-250.8,214.1-255.5,214.1z"/>
		</g>
	</g>
	<g>
		<path d="M-219.3,216.2h-207.6c-4.8,0-8.6-3.9-8.6-8.6s3.9-8.6,8.6-8.6h207.6c4.8,0,8.6,3.9,8.6,8.6S-214.6,216.2-219.3,216.2z"/>
	</g>
	<g>
		<path d="M-221.1-10.1h-207.6c-4.8,0-8.6-3.9-8.6-8.6s3.9-8.6,8.6-8.6h207.6c4.8,0,8.6,3.9,8.6,8.6S-216.3-10.1-221.1-10.1z"/>
	</g>
	<g>
		<path d="M-428.8,216.2h-48.3c-4.8,0-8.6-3.9-8.6-8.6V-95.9c0-4.8,3.9-8.6,8.6-8.6h48.3c4.8,0,8.6,3.9,8.6,8.6v303.4
			C-420.2,212.3-424,216.2-428.8,216.2z M-468.4,198.9h31V-87.3h-31V198.9z"/>
	</g>
	<g>
		<path d="M-172.5,216.2h-48.3c-4.8,0-8.6-3.9-8.6-8.6V-95.9c0-4.8,3.9-8.6,8.6-8.6h48.3c4.8,0,8.6,3.9,8.6,8.6v303.4
			C-163.8,212.3-167.7,216.2-172.5,216.2z M-212.1,198.9h31V-87.3h-31V198.9z"/>
	</g>
	<g>
		<path d="M-221.1,38.4h-207.6c-4.8,0-8.6-3.9-8.6-8.6s3.9-8.6,8.6-8.6h207.6c4.8,0,8.6,3.9,8.6,8.6S-216.3,38.4-221.1,38.4z"/>
	</g>
	<g>
		<path d="M-221.1,130.4h-207.6c-4.8,0-8.6-3.9-8.6-8.6s3.9-8.6,8.6-8.6h207.6c4.8,0,8.6,3.9,8.6,8.6S-216.3,130.4-221.1,130.4z"/>
	</g>
</g>
<g>
	<g>
		<g>
			<path d="M-160.8-237.7c-2,0-3.9-0.8-5.3-2.2c-1.4-1.4-2.2-3.3-2.2-5.3c0-2,0.8-3.9,2.2-5.3c1.2-1.2,2.8-2,4.5-2.2l0.1,0
				c0.7-0.1,1.7-0.2,2.4,0.3c0.5,0.3,0.8,0.8,0.9,1.3c0.1,0.5-0.1,1.1-0.5,1.5c-0.2,0.2-0.6,0.2-0.8,0c-0.2-0.2-0.2-0.6,0-0.8
				c0.1-0.1,0.2-0.3,0.2-0.6c0-0.2-0.1-0.4-0.3-0.5c-0.4-0.3-1.3-0.2-1.8-0.1l-0.1,0c-1.4,0.2-2.8,0.8-3.9,1.9
				c-1.2,1.2-1.9,2.8-1.9,4.5c0,1.7,0.7,3.3,1.9,4.6c1.2,1.2,2.8,1.9,4.6,1.9c0,0,0,0,0,0c0.3,0,0.7-0.1,0.9-0.1
				c0.1,0,0.3-0.1,0.4-0.2c0.2-0.2,0.2-0.4,0.2-0.6c0-0.2-0.2-0.4-0.3-0.4c-0.3-0.1-0.4-0.4-0.3-0.7c0.1-0.3,0.4-0.4,0.7-0.3
				c0.5,0.2,0.9,0.7,1,1.2c0.1,0.6-0.1,1.2-0.5,1.6c-0.2,0.2-0.5,0.4-0.8,0.5l0,0c0,0-0.1,0-0.1,0l0,0
				C-160-237.8-160.4-237.7-160.8-237.7C-160.8-237.7-160.8-237.7-160.8-237.7z"/>
		</g>
		<g>
			<g>
				<path d="M-155.3-237.7C-155.3-237.7-155.3-237.7-155.3-237.7c-0.4,0-0.8-0.1-1.1-0.1l0,0c0,0-0.1,0-0.1,0l0,0
					c-0.3-0.1-0.6-0.3-0.8-0.5c-0.4-0.4-0.6-1-0.5-1.6c0.1-0.6,0.5-1,1-1.2c0.3-0.1,0.6,0,0.7,0.3c0.1,0.3,0,0.6-0.3,0.7
					c-0.2,0.1-0.3,0.2-0.3,0.4c0,0.2,0,0.5,0.2,0.6c0.1,0.1,0.2,0.2,0.4,0.2c0.3,0,0.6,0.1,0.9,0.1c0,0,0,0,0,0
					c1.7,0,3.3-0.7,4.6-1.9c1.2-1.2,1.9-2.8,1.9-4.6c0-1.7-0.7-3.3-1.9-4.5c-1-1-2.4-1.7-3.9-1.9l-0.1,0c-0.5,0-1.3-0.1-1.8,0.1
					c-0.2,0.1-0.3,0.3-0.3,0.5c0,0.2,0,0.4,0.2,0.6c0.2,0.2,0.2,0.6,0,0.8c-0.2,0.2-0.6,0.2-0.8,0c-0.4-0.4-0.5-0.9-0.5-1.5
					c0.1-0.6,0.4-1,0.9-1.3c0.7-0.4,1.7-0.3,2.4-0.3l0.1,0c1.7,0.2,3.3,1,4.5,2.2c1.4,1.4,2.2,3.3,2.2,5.3c0,2-0.8,3.9-2.2,5.3
					C-151.4-238.5-153.3-237.7-155.3-237.7z"/>
			</g>
			<g>
				<path d="M-152.4-245.4c-0.1,0-0.2,0-0.4,0c-0.6-0.1-1-0.5-1.2-1c-0.1-0.3,0-0.6,0.3-0.7c0.3-0.1,0.6,0,0.7,0.3
					c0.1,0.2,0.2,0.3,0.4,0.3c0.2,0,0.5,0,0.6-0.2c0.1-0.1,0.2-0.2,0.2-0.4c0-0.3,0.1-0.6,0.1-0.9c0-1.7-0.7-3.3-1.9-4.6
					c-1.2-1.2-2.8-1.9-4.6-1.9c-1.7,0-3.3,0.7-4.5,1.9c-1,1-1.7,2.4-1.9,3.9l0,0.1c0,0.5-0.1,1.3,0.1,1.8c0.1,0.2,0.3,0.3,0.5,0.3
					c0.2,0,0.4,0,0.6-0.2c0.2-0.2,0.6-0.2,0.8,0c0.2,0.2,0.2,0.6,0,0.8c-0.4,0.4-0.9,0.5-1.5,0.5c-0.6-0.1-1-0.4-1.3-0.9
					c-0.4-0.7-0.3-1.7-0.3-2.4l0-0.1c0.2-1.7,1-3.3,2.2-4.5c1.4-1.4,3.3-2.2,5.3-2.2c2,0,3.9,0.8,5.3,2.2c1.4,1.4,2.2,3.3,2.2,5.3
					c0,0.4-0.1,0.8-0.1,1.1l0,0c0,0,0,0.1,0,0.1l0,0c-0.1,0.3-0.3,0.6-0.5,0.8C-151.5-245.6-151.9-245.4-152.4-245.4z"/>
			</g>
			<g>
				<path d="M-158.1-235c-2,0-3.9-0.8-5.3-2.2c-1.2-1.2-2-2.8-2.2-4.5l0-0.1c-0.1-0.7-0.2-1.7,0.3-2.4c0.3-0.5,0.8-0.8,1.3-0.9
					c0.5-0.1,1.1,0.1,1.5,0.5c0.2,0.2,0.2,0.6,0,0.8c-0.2,0.2-0.6,0.2-0.8,0c-0.1-0.1-0.3-0.2-0.6-0.2c-0.2,0-0.4,0.1-0.5,0.3
					c-0.3,0.4-0.2,1.3-0.1,1.8l0,0.1c0.2,1.4,0.8,2.8,1.9,3.9c1.2,1.2,2.8,1.9,4.5,1.9c1.7,0,3.3-0.7,4.6-1.9
					c1.2-1.2,1.9-2.8,1.9-4.6c0-0.3-0.1-0.7-0.1-0.9c0-0.1-0.1-0.3-0.2-0.4c-0.2-0.2-0.4-0.2-0.6-0.2c-0.2,0-0.4,0.2-0.4,0.3
					c-0.1,0.3-0.4,0.4-0.7,0.3c-0.3-0.1-0.4-0.4-0.3-0.7c0.2-0.5,0.7-0.9,1.2-1c0.6-0.1,1.2,0.1,1.6,0.5c0.2,0.2,0.4,0.5,0.5,0.8
					l0,0c0,0,0,0.1,0,0.1l0,0c0,0.3,0.1,0.7,0.1,1.1c0,2-0.8,3.9-2.2,5.3C-154.1-235.8-156-235-158.1-235z"/>
			</g>
		</g>
	</g>
	<g>
		<g>
			<g>
				<path d="M-161.2-247.8c-0.1,0-0.3-0.1-0.4-0.2l-5.3-5.3c-0.2-0.2-0.2-0.6,0-0.8c0.2-0.2,0.6-0.2,0.8,0l5.3,5.3
					c0.2,0.2,0.2,0.6,0,0.8C-160.9-247.9-161-247.8-161.2-247.8z"/>
			</g>
			<g>
				<path d="M-149.6-236.3c-0.1,0-0.3-0.1-0.4-0.2l-5.3-5.3c-0.2-0.2-0.2-0.6,0-0.8c0.2-0.2,0.6-0.2,0.8,0l5.3,5.3
					c0.2,0.2,0.2,0.6,0,0.8C-149.3-236.3-149.5-236.3-149.6-236.3z"/>
			</g>
		</g>
		<g>
			<g>
				<path d="M-154.9-247.8c-0.1,0-0.3-0.1-0.4-0.2c-0.2-0.2-0.2-0.6,0-0.8l5.3-5.3c0.2-0.2,0.6-0.2,0.8,0c0.2,0.2,0.2,0.6,0,0.8
					l-5.3,5.3C-154.7-247.9-154.8-247.8-154.9-247.8z"/>
			</g>
			<g>
				<path d="M-166.5-236.3c-0.1,0-0.3-0.1-0.4-0.2c-0.2-0.2-0.2-0.6,0-0.8l5.3-5.3c0.2-0.2,0.6-0.2,0.8,0c0.2,0.2,0.2,0.6,0,0.8
					l-5.3,5.3C-166.2-236.3-166.3-236.3-166.5-236.3z"/>
			</g>
		</g>
	</g>
</g>
<g>
	<g>
		<path d="M87.2-240.6L87.2-240.6c-3.7,0-4.8-3.1-4.8-4.7c0,0,0-0.1,0-0.1c0.4-1.6,1.9-2.5,4.3-2.5c3,0,6.8,1.5,7.2,3.5
			c0.2,0.8-0.2,2-2.6,3C89.7-240.9,88.4-240.6,87.2-240.6z M83.4-245.4c0,0.5,0.4,3.6,3.8,3.6h0c1,0,2.2-0.3,3.6-0.8
			c0.8-0.3,2.1-1,1.9-1.8c-0.2-1.2-3.2-2.6-6.1-2.6C85.6-246.9,83.8-246.7,83.4-245.4z"/>
	</g>
	<g>
		<g>
			<path d="M99.1-236H80.2c-0.3,0-0.5-0.2-0.5-0.5v-18.9c0-0.3,0.2-0.5,0.5-0.5h18.9c0.3,0,0.5,0.2,0.5,0.5v18.9
				C99.7-236.2,99.4-236,99.1-236z M80.7-237.1h17.9v-17.9H80.7V-237.1z"/>
		</g>
		<g>
			<g>
				<path d="M85.2-250.5c0.4,0,0.7,0.3,0.7,0.7v1c0,0.4-0.3,0.8-0.7,0.8h-3.4c-0.4,0-0.7-0.3-0.7-0.8v-1c0-0.4,0.3-0.7,0.7-0.7H85.2
					 M85.2-251.5h-3.4c-1,0-1.8,0.8-1.8,1.8v1c0,1,0.8,1.8,1.8,1.8h3.4c1,0,1.8-0.8,1.8-1.8v-1C87-250.7,86.2-251.5,85.2-251.5
					L85.2-251.5z"/>
			</g>
			<g>
				<path d="M91.4-250.5c0.4,0,0.7,0.3,0.7,0.7v1c0,0.4-0.3,0.8-0.7,0.8H88c-0.4,0-0.7-0.3-0.7-0.8v-1c0-0.4,0.3-0.7,0.7-0.7H91.4
					 M91.4-251.5H88c-1,0-1.8,0.8-1.8,1.8v1c0,1,0.8,1.8,1.8,1.8h3.4c1,0,1.8-0.8,1.8-1.8v-1C93.2-250.7,92.4-251.5,91.4-251.5
					L91.4-251.5z"/>
			</g>
			<g>
				<path d="M97.6-250.5c0.4,0,0.7,0.3,0.7,0.7v1c0,0.4-0.3,0.8-0.7,0.8h-3.4c-0.4,0-0.7-0.3-0.7-0.8v-1c0-0.4,0.3-0.7,0.7-0.7H97.6
					 M97.6-251.5h-3.4c-1,0-1.8,0.8-1.8,1.8v1c0,1,0.8,1.8,1.8,1.8h3.4c1,0,1.8-0.8,1.8-1.8v-1C99.4-250.7,98.6-251.5,97.6-251.5
					L97.6-251.5z"/>
			</g>
			<g>
				<path d="M85.2-246.9c0.4,0,0.7,0.3,0.7,0.7v1c0,0.4-0.3,0.7-0.7,0.7h-3.4c-0.4,0-0.7-0.3-0.7-0.7v-1c0-0.4,0.3-0.7,0.7-0.7H85.2
					 M85.2-248h-3.4c-1,0-1.8,0.8-1.8,1.8v1c0,1,0.8,1.8,1.8,1.8h3.4c1,0,1.8-0.8,1.8-1.8v-1C87-247.1,86.2-248,85.2-248L85.2-248z"
					/>
			</g>
			<g>
				<path d="M91.4-246.9c0.4,0,0.7,0.3,0.7,0.7v1c0,0.4-0.3,0.7-0.7,0.7H88c-0.4,0-0.7-0.3-0.7-0.7v-1c0-0.4,0.3-0.7,0.7-0.7H91.4
					 M91.4-248H88c-1,0-1.8,0.8-1.8,1.8v1c0,1,0.8,1.8,1.8,1.8h3.4c1,0,1.8-0.8,1.8-1.8v-1C93.2-247.1,92.4-248,91.4-248L91.4-248z"
					/>
			</g>
			<g>
				<path d="M97.6-246.9c0.4,0,0.7,0.3,0.7,0.7v1c0,0.4-0.3,0.7-0.7,0.7h-3.4c-0.4,0-0.7-0.3-0.7-0.7v-1c0-0.4,0.3-0.7,0.7-0.7H97.6
					 M97.6-248h-3.4c-1,0-1.8,0.8-1.8,1.8v1c0,1,0.8,1.8,1.8,1.8h3.4c1,0,1.8-0.8,1.8-1.8v-1C99.4-247.1,98.6-248,97.6-248L97.6-248
					z"/>
			</g>
			<g>
				<path d="M85.2-243.3c0.4,0,0.7,0.3,0.7,0.7v1c0,0.4-0.3,0.7-0.7,0.7h-3.4c-0.4,0-0.7-0.3-0.7-0.7v-1c0-0.4,0.3-0.7,0.7-0.7H85.2
					 M85.2-244.4h-3.4c-1,0-1.8,0.8-1.8,1.8v1c0,1,0.8,1.8,1.8,1.8h3.4c1,0,1.8-0.8,1.8-1.8v-1C87-243.6,86.2-244.4,85.2-244.4
					L85.2-244.4z"/>
			</g>
			<g>
				<path d="M91.4-243.3c0.4,0,0.7,0.3,0.7,0.7v1c0,0.4-0.3,0.7-0.7,0.7H88c-0.4,0-0.7-0.3-0.7-0.7v-1c0-0.4,0.3-0.7,0.7-0.7H91.4
					 M91.4-244.4H88c-1,0-1.8,0.8-1.8,1.8v1c0,1,0.8,1.8,1.8,1.8h3.4c1,0,1.8-0.8,1.8-1.8v-1C93.2-243.6,92.4-244.4,91.4-244.4
					L91.4-244.4z"/>
			</g>
			<g>
				<path d="M97.6-243.3c0.4,0,0.7,0.3,0.7,0.7v1c0,0.4-0.3,0.7-0.7,0.7h-3.4c-0.4,0-0.7-0.3-0.7-0.7v-1c0-0.4,0.3-0.7,0.7-0.7H97.6
					 M97.6-244.4h-3.4c-1,0-1.8,0.8-1.8,1.8v1c0,1,0.8,1.8,1.8,1.8h3.4c1,0,1.8-0.8,1.8-1.8v-1C99.4-243.6,98.6-244.4,97.6-244.4
					L97.6-244.4z"/>
			</g>
			<g>
				<path d="M85.2-239.8c0.4,0,0.7,0.3,0.7,0.7v1c0,0.4-0.3,0.8-0.7,0.8h-3.4c-0.4,0-0.7-0.3-0.7-0.8v-1c0-0.4,0.3-0.7,0.7-0.7H85.2
					 M85.2-240.8h-3.4c-1,0-1.8,0.8-1.8,1.8v1c0,1,0.8,1.8,1.8,1.8h3.4c1,0,1.8-0.8,1.8-1.8v-1C87-240,86.2-240.8,85.2-240.8
					L85.2-240.8z"/>
			</g>
			<g>
				<path d="M91.4-239.8c0.4,0,0.7,0.3,0.7,0.7v1c0,0.4-0.3,0.8-0.7,0.8H88c-0.4,0-0.7-0.3-0.7-0.8v-1c0-0.4,0.3-0.7,0.7-0.7H91.4
					 M91.4-240.8H88c-1,0-1.8,0.8-1.8,1.8v1c0,1,0.8,1.8,1.8,1.8h3.4c1,0,1.8-0.8,1.8-1.8v-1C93.2-240,92.4-240.8,91.4-240.8
					L91.4-240.8z"/>
			</g>
			<g>
				<path d="M97.6-239.8c0.4,0,0.7,0.3,0.7,0.7v1c0,0.4-0.3,0.8-0.7,0.8h-3.4c-0.4,0-0.7-0.3-0.7-0.8v-1c0-0.4,0.3-0.7,0.7-0.7H97.6
					 M97.6-240.8h-3.4c-1,0-1.8,0.8-1.8,1.8v1c0,1,0.8,1.8,1.8,1.8h3.4c1,0,1.8-0.8,1.8-1.8v-1C99.4-240,98.6-240.8,97.6-240.8
					L97.6-240.8z"/>
			</g>
		</g>
	</g>
</g>
<g>
	<g>
		<g>
			<path d="M335.3-243.4c0,0-0.1,0-0.1,0l-4.4-1.3c-0.2,0-0.3-0.2-0.3-0.4l-1.1-4.4c0-0.2,0-0.4,0.1-0.5l3.3-3.2
				c0.1-0.1,0.3-0.2,0.5-0.1l4.4,1.3c0.2,0,0.3,0.2,0.3,0.4l1.1,4.4c0,0.2,0,0.4-0.1,0.5l-3.3,3.2
				C335.6-243.5,335.5-243.4,335.3-243.4z M331.4-245.6l3.8,1.1l2.9-2.8l-1-3.9l-3.8-1.1l-2.9,2.8L331.4-245.6z"/>
		</g>
		<g>
			<path d="M334.2-245.9c-1.1,0-2.1-0.8-2.4-1.9c-0.2-0.6-0.1-1.3,0.3-1.9s0.9-1,1.5-1.1c0.2,0,0.4-0.1,0.6-0.1
				c1.1,0,2.1,0.8,2.4,1.9c0.2,0.6,0.1,1.3-0.3,1.9c-0.3,0.6-0.9,1-1.5,1.1C334.6-245.9,334.4-245.9,334.2-245.9z M334.2-249.8
				c-0.1,0-0.2,0-0.3,0c-0.4,0.1-0.7,0.3-0.9,0.7c-0.2,0.3-0.3,0.7-0.2,1.1c0.2,0.7,0.7,1.1,1.4,1.1c0.1,0,0.2,0,0.3,0
				c0.4-0.1,0.7-0.3,0.9-0.7c0.2-0.3,0.3-0.7,0.2-1.1C335.5-249.4,334.9-249.8,334.2-249.8z"/>
		</g>
	</g>
	<g>
		<g>
			<g>
				<path d="M344.9-243.1c-0.1,0-0.1,0-0.2,0l-4.3-1.9c-0.2-0.1-0.4-0.4-0.3-0.6c0.1-0.2,0.4-0.4,0.6-0.3l4.3,1.9
					c0.2,0.1,0.4,0.4,0.3,0.6C345.3-243.2,345.1-243.1,344.9-243.1z"/>
			</g>
			<g>
				<path d="M343.6-241.8c-0.1,0-0.1,0-0.2,0l-4.3-1.9c-0.2-0.1-0.4-0.4-0.3-0.6c0.1-0.2,0.4-0.4,0.6-0.3l4.3,1.9
					c0.2,0.1,0.4,0.4,0.3,0.6C344-241.9,343.8-241.8,343.6-241.8z"/>
			</g>
			<g>
				<path d="M342.3-240.5c-0.1,0-0.1,0-0.2,0l-4.3-1.9c-0.2-0.1-0.4-0.4-0.3-0.6c0.1-0.2,0.4-0.4,0.6-0.3l4.3,1.9
					c0.2,0.1,0.4,0.4,0.3,0.6C342.7-240.6,342.5-240.5,342.3-240.5z"/>
			</g>
			<g>
				<path d="M341-239.2c-0.1,0-0.1,0-0.2,0l-4.3-1.9c-0.2-0.1-0.4-0.4-0.3-0.6c0.1-0.2,0.4-0.4,0.6-0.3l4.3,1.9
					c0.2,0.1,0.4,0.4,0.3,0.6C341.4-239.3,341.2-239.2,341-239.2z"/>
			</g>
		</g>
		<g>
			<path d="M338.6-236.8c-0.1,0-0.3-0.1-0.3-0.1l-3-3c-0.2-0.2-0.2-0.5,0-0.7l10-10c0.2-0.2,0.5-0.2,0.7,0l3,3
				c0.1,0.1,0.1,0.2,0.1,0.3s-0.1,0.3-0.1,0.3l-10,10C338.9-236.9,338.7-236.8,338.6-236.8z M336.3-240.4l2.3,2.3l9.3-9.3l-2.3-2.3
				L336.3-240.4z"/>
		</g>
		<g>
			<path d="M333.7-235c-0.1,0-0.3-0.1-0.3-0.1c-0.1-0.1-0.2-0.3-0.1-0.4c0-0.3,0.3-3,0.7-3.9c0.1-0.1,0.2-0.3,0.4-0.3
				c0.2,0,0.3,0,0.4,0.1l3,3c0.1,0.1,0.2,0.3,0.1,0.4c0,0.2-0.1,0.3-0.3,0.4C336.8-235.3,334.1-235,333.7-235
				C333.8-235,333.8-235,333.7-235z M334.6-238.3c-0.1,0.7-0.3,1.6-0.3,2.2c0.7-0.1,1.5-0.2,2.2-0.3L334.6-238.3z"/>
		</g>
		<g>
			<path d="M350.3-245.3c-0.1,0-0.3-0.1-0.3-0.1l-6.2-6.2c-0.2-0.2-0.2-0.5,0-0.7l2.1-2.1c0.2-0.2,0.5-0.2,0.7,0l6.2,6.2
				c0.2,0.2,0.2,0.5,0,0.7l-2.1,2.1C350.5-245.4,350.4-245.3,350.3-245.3z M344.8-252l5.5,5.5l1.4-1.4l-5.5-5.5L344.8-252z"/>
		</g>
	</g>
</g>
<g>
	<g>
		<path d="M341.7-318c-0.1,0-0.2-0.1-0.3-0.2l-3.3-5.7c-0.1-0.2,0-0.4,0.1-0.5c0.2-0.1,0.4,0,0.5,0.1l3.3,5.7c0.1,0.2,0,0.4-0.1,0.5
			C341.8-318,341.8-318,341.7-318z"/>
	</g>
	<g>
		<path d="M343.5-318c-0.1,0-0.2-0.1-0.3-0.2l-3.3-5.7c-0.1-0.2,0-0.4,0.1-0.5c0.2-0.1,0.4,0,0.5,0.1l3.3,5.7c0.1,0.2,0,0.4-0.1,0.5
			C343.7-318,343.6-318,343.5-318z"/>
	</g>
	<g>
		<path d="M339.9-318c-0.1,0-0.2-0.1-0.3-0.2l-5.3-9.2c-0.1-0.2,0-0.4,0.1-0.5c0.2-0.1,0.4,0,0.5,0.1l5.3,9.2c0.1,0.2,0,0.4-0.1,0.5
			C340-318,340-318,339.9-318z"/>
	</g>
	<g>
		<path d="M339.9-318c-0.1,0-0.2-0.1-0.3-0.2l-5.3-9.2c-0.1-0.2,0-0.4,0.1-0.5c0.2-0.1,0.4,0,0.5,0.1l5.3,9.2c0.1,0.2,0,0.4-0.1,0.5
			C340-318,340-318,339.9-318z"/>
	</g>
	<g>
		<g>
			<path d="M343.8-321c-0.1,0-0.1,0-0.2-0.1c-0.2-0.1-0.2-0.3-0.1-0.5l2.4-4.1c0.1-0.2,0.3-0.2,0.5-0.1c0.2,0.1,0.2,0.3,0.1,0.5
				l-2.4,4.1C344.1-321,343.9-321,343.8-321z"/>
		</g>
		<g>
			<path d="M352.1-320.8h-8.3c-0.2,0-0.4-0.2-0.4-0.4s0.2-0.4,0.4-0.4h8.3c0.2,0,0.4,0.2,0.4,0.4S352.3-320.8,352.1-320.8z"/>
		</g>
	</g>
	<g>
		<path d="M347.4-314.5c-0.1,0-0.2-0.1-0.3-0.2l-5.3-9.2c-0.1-0.2,0-0.4,0.1-0.5c0.2-0.1,0.4,0,0.5,0.1l5.3,9.2
			c0.1,0.2,0,0.4-0.1,0.5C347.5-314.5,347.4-314.5,347.4-314.5z"/>
	</g>
	<g>
		<g>
			<path d="M335.5-316.6c-0.1,0-0.1,0-0.2-0.1c-0.2-0.1-0.2-0.3-0.1-0.5l2.4-4.1c0.1-0.2,0.3-0.2,0.5-0.1c0.2,0.1,0.2,0.3,0.1,0.5
				l-2.4,4.1C335.7-316.6,335.6-316.6,335.5-316.6z"/>
		</g>
		<g>
			<path d="M338-320.9h-8.3c-0.2,0-0.4-0.2-0.4-0.4s0.2-0.4,0.4-0.4h8.3c0.2,0,0.4,0.2,0.4,0.4S338.2-320.9,338-320.9z"/>
		</g>
	</g>
</g>
</svg>
