<?xml version="1.0" encoding="utf-8"?>
<!-- Generator: Adobe Illustrator 18.0.0, SVG Export Plug-In . SVG Version: 6.00 Build 0)  -->
<!DOCTYPE svg PUBLIC "-//W3C//DTD SVG 1.1 Tiny//EN" "http://www.w3.org/Graphics/SVG/1.1/DTD/svg11-tiny.dtd">
<svg version="1.1" baseProfile="tiny" id="Layer_1" xmlns="http://www.w3.org/2000/svg" xmlns:xlink="http://www.w3.org/1999/xlink"
	 x="0px" y="0px" viewBox="0 0 330 330" fill="#fff" xml:space="preserve">
<g>
	<g>
		<g>
			<path d="M464.7-23.8c-1.9,0-3.7-0.7-5.1-2.1l-37.7-37.7c-2.8-2.8-2.8-7.4,0-10.3l37.7-37.7c2.8-2.8,7.4-2.8,10.3,0l37.7,37.7
				c2.8,2.8,2.8,7.4,0,10.3L469.8-26C468.4-24.6,466.5-23.8,464.7-23.8z M437.3-68.8l27.4,27.4l27.4-27.4l-27.4-27.4L437.3-68.8z"/>
		</g>
		<g>
			<path d="M464.7,51.5c-1.9,0-3.7-0.7-5.1-2.1l-37.7-37.7c-2.8-2.8-2.8-7.4,0-10.3l37.7-37.7c2.8-2.8,7.4-2.8,10.3,0l37.7,37.7
				c2.8,2.8,2.8,7.4,0,10.3l-37.7,37.7C468.4,50.8,466.5,51.5,464.7,51.5z M437.3,6.6L464.7,34l27.4-27.4l-27.4-27.4L437.3,6.6z"/>
		</g>
	</g>
	<g>
		<g>
			<path d="M464.7,127.9c-1.9,0-3.7-0.7-5.1-2.1l-37.7-37.7c-2.8-2.8-2.8-7.4,0-10.3l37.7-37.7c2.8-2.8,7.4-2.8,10.3,0l37.7,37.7
				c2.8,2.8,2.8,7.4,0,10.3l-37.7,37.7C468.4,127.2,466.5,127.9,464.7,127.9z M437.3,82.9l27.4,27.4l27.4-27.4l-27.4-27.4
				L437.3,82.9z"/>
		</g>
		<g>
			<path d="M464.7,203.2c-1.9,0-3.7-0.7-5.1-2.1l-37.7-37.7c-2.8-2.8-2.8-7.4,0-10.3l37.7-37.7c2.8-2.8,7.4-2.8,10.3,0l37.7,37.7
				c2.8,2.8,2.8,7.4,0,10.3l-37.7,37.7C468.4,202.5,466.5,203.2,464.7,203.2z M437.3,158.3l27.4,27.4l27.4-27.4l-27.4-27.4
				L437.3,158.3z"/>
		</g>
	</g>
	<g>
		<g>
			<path d="M540-23.8c-1.9,0-3.7-0.7-5.1-2.1l-37.7-37.7c-2.8-2.8-2.8-7.4,0-10.3l37.7-37.7c2.8-2.8,7.4-2.8,10.3,0l37.7,37.7
				c2.8,2.8,2.8,7.4,0,10.3L545.1-26C543.7-24.6,541.9-23.8,540-23.8z M512.6-68.8L540-41.4l27.4-27.4L540-96.2L512.6-68.8z"/>
		</g>
		<g>
			<path d="M540,51.5c-1.9,0-3.7-0.7-5.1-2.1l-37.7-37.7c-2.8-2.8-2.8-7.4,0-10.3l37.7-37.7c2.8-2.8,7.4-2.8,10.3,0l37.7,37.7
				c2.8,2.8,2.8,7.4,0,10.3l-37.7,37.7C543.7,50.8,541.9,51.5,540,51.5z M512.6,6.6L540,34l27.4-27.4L540-20.8L512.6,6.6z"/>
		</g>
	</g>
	<g>
		<g>
			<path d="M540,127.9c-1.9,0-3.7-0.7-5.1-2.1l-37.7-37.7c-2.8-2.8-2.8-7.4,0-10.3l37.7-37.7c2.8-2.8,7.4-2.8,10.3,0l37.7,37.7
				c2.8,2.8,2.8,7.4,0,10.3l-37.7,37.7C543.7,127.2,541.9,127.9,540,127.9z M512.6,82.9l27.4,27.4l27.4-27.4L540,55.5L512.6,82.9z"
				/>
		</g>
		<g>
			<path d="M540,203.2c-1.9,0-3.7-0.7-5.1-2.1l-37.7-37.7c-2.8-2.8-2.8-7.4,0-10.3l37.7-37.7c2.8-2.8,7.4-2.8,10.3,0l37.7,37.7
				c2.8,2.8,2.8,7.4,0,10.3l-37.7,37.7C543.7,202.5,541.9,203.2,540,203.2z M512.6,158.3l27.4,27.4l27.4-27.4L540,130.9L512.6,158.3
				z"/>
		</g>
	</g>
	<g>
		<g>
			<path d="M615.3-23.8c-1.9,0-3.7-0.7-5.1-2.1l-37.7-37.7c-2.8-2.8-2.8-7.4,0-10.3l37.7-37.7c2.8-2.8,7.4-2.8,10.3,0l37.7,37.7
				c2.8,2.8,2.8,7.4,0,10.3L620.5-26C619-24.6,617.2-23.8,615.3-23.8z M587.9-68.8l27.4,27.4l27.4-27.4l-27.4-27.4L587.9-68.8z"/>
		</g>
		<g>
			<path d="M615.3,51.5c-1.9,0-3.7-0.7-5.1-2.1l-37.7-37.7c-2.8-2.8-2.8-7.4,0-10.3l37.7-37.7c2.8-2.8,7.4-2.8,10.3,0l37.7,37.7
				c2.8,2.8,2.8,7.4,0,10.3l-37.7,37.7C619,50.8,617.2,51.5,615.3,51.5z M587.9,6.6L615.3,34l27.4-27.4l-27.4-27.4L587.9,6.6z"/>
		</g>
	</g>
	<g>
		<g>
			<path d="M615.3,127.9c-1.9,0-3.7-0.7-5.1-2.1l-37.7-37.7c-2.8-2.8-2.8-7.4,0-10.3l37.7-37.7c2.8-2.8,7.4-2.8,10.3,0l37.7,37.7
				c2.8,2.8,2.8,7.4,0,10.3l-37.7,37.7C619,127.2,617.2,127.9,615.3,127.9z M587.9,82.9l27.4,27.4l27.4-27.4l-27.4-27.4L587.9,82.9z
				"/>
		</g>
		<g>
			<path d="M615.3,203.2c-1.9,0-3.7-0.7-5.1-2.1l-37.7-37.7c-2.8-2.8-2.8-7.4,0-10.3l37.7-37.7c2.8-2.8,7.4-2.8,10.3,0l37.7,37.7
				c2.8,2.8,2.8,7.4,0,10.3l-37.7,37.7C619,202.5,617.2,203.2,615.3,203.2z M587.9,158.3l27.4,27.4l27.4-27.4l-27.4-27.4
				L587.9,158.3z"/>
		</g>
	</g>
	<g>
		<g>
			<path d="M690.7-23.8c-1.9,0-3.7-0.7-5.1-2.1l-37.7-37.7c-2.8-2.8-2.8-7.4,0-10.3l37.7-37.7c2.8-2.8,7.4-2.8,10.3,0l37.7,37.7
				c2.8,2.8,2.8,7.4,0,10.3L695.8-26C694.4-24.6,692.5-23.8,690.7-23.8z M663.3-68.8l27.4,27.4l27.4-27.4l-27.4-27.4L663.3-68.8z"/>
		</g>
		<g>
			<path d="M690.7,51.5c-1.9,0-3.7-0.7-5.1-2.1l-37.7-37.7c-2.8-2.8-2.8-7.4,0-10.3l37.7-37.7c2.8-2.8,7.4-2.8,10.3,0l37.7,37.7
				c2.8,2.8,2.8,7.4,0,10.3l-37.7,37.7C694.4,50.8,692.5,51.5,690.7,51.5z M663.3,6.6L690.7,34l27.4-27.4l-27.4-27.4L663.3,6.6z"/>
		</g>
	</g>
	<g>
		<g>
			<path d="M690.7,127.9c-1.9,0-3.7-0.7-5.1-2.1l-37.7-37.7c-2.8-2.8-2.8-7.4,0-10.3l37.7-37.7c2.8-2.8,7.4-2.8,10.3,0l37.7,37.7
				c2.8,2.8,2.8,7.4,0,10.3l-37.7,37.7C694.4,127.2,692.5,127.9,690.7,127.9z M663.3,82.9l27.4,27.4l27.4-27.4l-27.4-27.4
				L663.3,82.9z"/>
		</g>
		<g>
			<path d="M690.7,203.2c-1.9,0-3.7-0.7-5.1-2.1l-37.7-37.7c-2.8-2.8-2.8-7.4,0-10.3l37.7-37.7c2.8-2.8,7.4-2.8,10.3,0l37.7,37.7
				c2.8,2.8,2.8,7.4,0,10.3l-37.7,37.7C694.4,202.5,692.5,203.2,690.7,203.2z M663.3,158.3l27.4,27.4l27.4-27.4l-27.4-27.4
				L663.3,158.3z"/>
		</g>
	</g>
</g>
<g>
	<g>
		<g>
			<path d="M-396,271.6c-4.8,0-8.6-3.9-8.6-8.6V1.8c0-4.8,3.9-8.6,8.6-8.6c4.8,0,8.6,3.9,8.6,8.6V263
				C-387.4,267.7-391.2,271.6-396,271.6z"/>
		</g>
		<g>
			<path d="M-361.3,271.6c-4.8,0-8.6-3.9-8.6-8.6V-10.6c0-4.8,3.9-8.6,8.6-8.6s8.6,3.9,8.6,8.6V263
				C-352.7,267.7-356.6,271.6-361.3,271.6z"/>
		</g>
		<g>
			<path d="M-326.7,271.6c-4.8,0-8.6-3.9-8.6-8.6V-24c0-4.8,3.9-8.6,8.6-8.6c4.8,0,8.6,3.9,8.6,8.6v287
				C-318,267.7-321.9,271.6-326.7,271.6z"/>
		</g>
		<g>
			<path d="M-292,271.6c-4.8,0-8.6-3.9-8.6-8.6V-10.6c0-4.8,3.9-8.6,8.6-8.6s8.6,3.9,8.6,8.6V263
				C-283.3,267.7-287.2,271.6-292,271.6z"/>
		</g>
		<g>
			<path d="M-257.3,271.6c-4.8,0-8.6-3.9-8.6-8.6V1.8c0-4.8,3.9-8.6,8.6-8.6s8.6,3.9,8.6,8.6V263
				C-248.7,267.7-252.5,271.6-257.3,271.6z"/>
		</g>
	</g>
	<g>
		<path d="M-221.1,273.7h-207.6c-4.8,0-8.6-3.9-8.6-8.6s3.9-8.6,8.6-8.6h207.6c4.8,0,8.6,3.9,8.6,8.6S-216.4,273.7-221.1,273.7z"/>
	</g>
	<g>
		<path d="M-222.9,47.5h-207.6c-4.8,0-8.6-3.9-8.6-8.6s3.9-8.6,8.6-8.6h207.6c4.8,0,8.6,3.9,8.6,8.6S-218.1,47.5-222.9,47.5z"/>
	</g>
	<g>
		<path d="M-430.6,273.7h-48.3c-4.8,0-8.6-3.9-8.6-8.6V-38.4c0-4.8,3.9-8.6,8.6-8.6h48.3c4.8,0,8.6,3.9,8.6,8.6v303.4
			C-421.9,269.8-425.8,273.7-430.6,273.7z M-470.2,256.4h31V-29.7h-31V256.4z"/>
	</g>
	<g>
		<path d="M-174.2,273.7h-48.3c-4.8,0-8.6-3.9-8.6-8.6V-38.4c0-4.8,3.9-8.6,8.6-8.6h48.3c4.8,0,8.6,3.9,8.6,8.6v303.4
			C-165.6,269.8-169.5,273.7-174.2,273.7z M-213.9,256.4h31V-29.7h-31V256.4z"/>
	</g>
	<g>
		<path d="M-222.9,96h-207.6c-4.8,0-8.6-3.9-8.6-8.6c0-4.8,3.9-8.6,8.6-8.6h207.6c4.8,0,8.6,3.9,8.6,8.6
			C-214.2,92.1-218.1,96-222.9,96z"/>
	</g>
	<g>
		<path d="M-222.9,187.9h-207.6c-4.8,0-8.6-3.9-8.6-8.6c0-4.8,3.9-8.6,8.6-8.6h207.6c4.8,0,8.6,3.9,8.6,8.6
			C-214.2,184.1-218.1,187.9-222.9,187.9z"/>
	</g>
</g>
<g>
	<g>
		<g>
			<path d="M-354.8,2.6c-31,0-60.2-12.1-82.2-34.1c-22-22-34.1-51.2-34.1-82.2c0-30.9,12.1-60,33.9-81.9
				c18.6-18.6,43.2-30.5,69.5-33.5l1.4-0.1c10.3-0.9,25.8-2.4,37.2,4.4c7.3,4.3,12.2,11.6,13.3,20.1c1.1,8.3-1.8,17-7.4,22.6
				c-3.3,3.3-8.7,3.3-12,0c-3.3-3.3-3.3-8.7,0-12c2-2,3-5.3,2.6-8.5c-0.4-3.2-2.3-6-5.1-7.6c-6.7-4-19.4-2.9-27-2.2l-1.2,0.1
				c-22.3,2.6-43.4,12.8-59.3,28.7c-18.7,18.7-29,43.5-29,69.9c0,26.5,10.3,51.4,29.1,70.2c18.8,18.8,43.7,29.1,70.2,29.1
				c0,0,0,0,0,0c4.7,0,10.2-0.8,13.9-1.5c2.2-0.8,4-1.9,5.5-3.3c2.6-2.6,3.6-6.2,2.9-9.8c-0.6-3.2-2.5-5.6-4.9-6.6
				c-4.4-1.7-6.5-6.7-4.7-11c1.7-4.4,6.7-6.5,11-4.7c7.7,3.1,13.4,10.2,15.2,18.9c1.9,9.2-0.9,18.6-7.5,25.2
				c-3.3,3.3-7.4,5.8-12.2,7.4l-0.5,0.2c-0.5,0.2-0.9,0.3-1.4,0.3l-0.6,0.1C-342.4,1.7-348.8,2.6-354.8,2.6
				C-354.8,2.6-354.8,2.6-354.8,2.6z"/>
		</g>
		<g>
			<g>
				<path d="M-271.2,2.6C-271.2,2.6-271.2,2.6-271.2,2.6c-6,0-12.4-1-16.8-1.7l-0.4-0.1c-0.5-0.1-0.9-0.2-1.4-0.3l-0.5-0.2
					c-4.8-1.6-8.9-4.1-12.2-7.4c-6.6-6.6-9.4-16.1-7.5-25.3c1.8-8.7,7.5-15.8,15.2-18.9c4.4-1.7,9.3,0.4,11,4.7
					c1.7,4.3-0.4,9.3-4.7,11c-2.4,1-4.2,3.4-4.8,6.6c-0.7,3.6,0.3,7.3,2.9,9.9c1.4,1.4,3.2,2.5,5.5,3.3c3.9,0.6,9.2,1.5,13.9,1.5
					c0,0,0,0,0,0c26.5,0,51.4-10.3,70.2-29.1c18.8-18.8,29.1-43.7,29.1-70.2c0-26.4-10.3-51.2-29-69.9c-15.9-15.9-37-26.1-59.5-28.7
					l-1-0.1c-7.6-0.7-20.3-1.9-26.9,2.1c-2.9,1.7-4.8,4.5-5.2,7.7c-0.4,3.2,0.6,6.5,2.6,8.5c3.3,3.3,3.3,8.7,0,12
					c-3.3,3.3-8.7,3.3-12,0c-5.6-5.6-8.4-14.3-7.4-22.6c1.1-8.5,6-15.8,13.4-20.1c11.3-6.8,26.8-5.3,37.1-4.4l1.2,0.1
					c26.5,3.1,51.2,15,69.7,33.6c21.9,21.9,33.9,51,33.9,81.9c0,31-12.1,60.2-34.1,82.2C-211-9.5-240.2,2.6-271.2,2.6z"/>
			</g>
			<g>
				<path d="M-226-116.1c-1.9,0-3.8-0.2-5.7-0.6c-8.7-1.8-15.8-7.5-18.9-15.2c-1.7-4.3,0.4-9.3,4.7-11c4.4-1.7,9.3,0.4,11,4.7
					c1,2.4,3.4,4.2,6.6,4.8c3.6,0.7,7.3-0.3,9.9-2.9c1.4-1.4,2.5-3.2,3.3-5.5c0.6-3.9,1.5-9.2,1.5-13.9c0-26.5-10.3-51.4-29.1-70.2
					c-18.8-18.8-43.7-29.1-70.2-29.1c-26.4,0-51.2,10.3-69.9,29c-15.9,15.9-26.1,37-28.7,59.5l-0.1,1c-0.7,7.6-1.9,20.3,2.1,26.9
					c1.7,2.9,4.5,4.8,7.7,5.2c3.2,0.4,6.5-0.6,8.5-2.6c3.3-3.3,8.7-3.3,12,0c3.3,3.3,3.3,8.7,0,12c-5.6,5.6-14.3,8.4-22.6,7.4
					c-8.5-1.1-15.8-6-20.1-13.4c-6.8-11.3-5.3-26.8-4.4-37.1l0.1-1.2c3.1-26.5,15-51.2,33.6-69.7c21.9-21.9,51-33.9,81.9-33.9
					c31,0,60.2,12.1,82.2,34.1c22,22,34.1,51.2,34.1,82.2c0,6-1,12.4-1.7,16.8l-0.1,0.4c-0.1,0.5-0.2,0.9-0.3,1.4l-0.2,0.5
					c-1.6,4.8-4.1,8.9-7.4,12.2C-211.6-118.9-218.7-116.1-226-116.1z"/>
			</g>
			<g>
				<path d="M-313,44.4c-30.9,0-60-12.1-81.9-33.9c-18.6-18.6-30.5-43.2-33.5-69.5l-0.1-1.4c-0.9-10.3-2.4-25.8,4.5-37.2
					c4.3-7.3,11.6-12.2,20.1-13.3c8.3-1.1,17,1.8,22.6,7.4c3.3,3.3,3.3,8.7,0,12c-3.3,3.3-8.7,3.3-12,0c-2-2-5.3-3-8.5-2.6
					c-3.2,0.4-6,2.3-7.6,5.1c-4,6.7-2.9,19.4-2.2,27l0.1,1.2c2.6,22.3,12.8,43.4,28.7,59.3c18.7,18.7,43.5,29,69.9,29
					c26.5,0,51.4-10.3,70.2-29.1c18.8-18.8,29.1-43.7,29.1-70.2c0-4.7-0.8-10.2-1.5-13.9c-0.8-2.2-1.9-4-3.3-5.5
					c-2.6-2.6-6.2-3.6-9.8-2.9c-3.2,0.6-5.6,2.5-6.6,4.9c-1.7,4.4-6.7,6.5-11,4.7c-4.4-1.7-6.5-6.7-4.7-11
					c3.1-7.7,10.2-13.4,18.9-15.2c9.2-1.9,18.6,0.9,25.2,7.5c3.3,3.3,5.8,7.4,7.4,12.2l0.2,0.5c0.2,0.5,0.3,0.9,0.3,1.4l0.1,0.6
					c0.7,4.2,1.7,10.6,1.7,16.6c0,31-12.1,60.2-34.1,82.2C-252.8,32.3-281.9,44.4-313,44.4z"/>
			</g>
		</g>
	</g>
	<g>
		<g>
			<g>
				<path d="M-361-153.3c-2.2,0-4.3-0.8-6-2.5l-81.8-81.8c-3.3-3.3-3.3-8.7,0-12c3.3-3.3,8.7-3.3,12,0l81.8,81.8
					c3.3,3.3,3.3,8.7,0,12C-356.7-154.1-358.9-153.3-361-153.3z"/>
			</g>
			<g>
				<path d="M-183.2,24.6c-2.2,0-4.3-0.8-6-2.5L-271-59.7c-3.3-3.3-3.3-8.7,0-12c3.3-3.3,8.7-3.3,12,0l81.8,81.8
					c3.3,3.3,3.3,8.7,0,12C-178.8,23.8-181,24.6-183.2,24.6z"/>
			</g>
		</g>
		<g>
			<g>
				<path d="M-265-153.3c-2.2,0-4.3-0.8-6-2.5c-3.3-3.3-3.3-8.7,0-12l81.8-81.8c3.3-3.3,8.7-3.3,12,0c3.3,3.3,3.3,8.7,0,12
					l-81.8,81.8C-260.6-154.1-262.8-153.3-265-153.3z"/>
			</g>
			<g>
				<path d="M-442.8,24.6c-2.2,0-4.3-0.8-6-2.5c-3.3-3.3-3.3-8.7,0-12l81.8-81.8c3.3-3.3,8.7-3.3,12,0c3.3,3.3,3.3,8.7,0,12
					l-81.8,81.8C-438.5,23.8-440.6,24.6-442.8,24.6z"/>
			</g>
		</g>
	</g>
</g>
<g>
	<g>
		<path d="M610.6,503.8L610.6,503.8c-59.6,0-77.1-50-78.1-76.4c0-0.8,0.1-1.6,0.2-2.3c6.1-25.5,31.1-40.1,68.5-40.1
			c48.3,0,109.2,24.7,115.3,56.5c2.5,13.1-2.7,32.1-41.9,47.8C650.8,498.9,629.2,503.8,610.6,503.8z M549.9,427.9
			c0.7,8.5,6.8,58.6,60.7,58.6h0c16.3,0,35.8-4.5,57.7-13.3c12.8-5.1,33.8-15.6,31.3-28.5c-3.6-18.5-51.9-42.5-98.3-42.5
			C584.7,402.2,556.2,405.6,549.9,427.9z"/>
	</g>
	<g>
		<g>
			<path d="M802.8,578.6H497.9c-4.8,0-8.6-3.9-8.6-8.6V265.1c0-4.8,3.9-8.6,8.6-8.6h304.9c4.8,0,8.6,3.9,8.6,8.6V570
				C811.4,574.7,807.6,578.6,802.8,578.6z M506.5,561.3h287.6V273.7H506.5V561.3z"/>
		</g>
		<g>
			<g>
				<path d="M578.6,345.8c6.7,0,12.1,5.4,12.1,12.1v15.6c0,6.7-5.4,12.1-12.1,12.1h-55.4c-6.7,0-12.1-5.4-12.1-12.1v-15.6
					c0-6.7,5.4-12.1,12.1-12.1H578.6 M578.6,328.5h-55.4c-16.2,0-29.4,13.2-29.4,29.4v15.6c0,16.2,13.2,29.4,29.4,29.4h55.4
					c16.2,0,29.4-13.2,29.4-29.4v-15.6C608,341.7,594.8,328.5,578.6,328.5L578.6,328.5z"/>
			</g>
			<g>
				<path d="M678.6,345.8c6.7,0,12.1,5.4,12.1,12.1v15.6c0,6.7-5.4,12.1-12.1,12.1h-55.4c-6.7,0-12.1-5.4-12.1-12.1v-15.6
					c0-6.7,5.4-12.1,12.1-12.1H678.6 M678.6,328.5h-55.4c-16.2,0-29.4,13.2-29.4,29.4v15.6c0,16.2,13.2,29.4,29.4,29.4h55.4
					c16.2,0,29.4-13.2,29.4-29.4v-15.6C707.9,341.7,694.7,328.5,678.6,328.5L678.6,328.5z"/>
			</g>
			<g>
				<path d="M777.4,345.8c6.7,0,12.1,5.4,12.1,12.1v15.6c0,6.7-5.4,12.1-12.1,12.1H722c-6.7,0-12.1-5.4-12.1-12.1v-15.6
					c0-6.7,5.4-12.1,12.1-12.1H777.4 M777.4,328.5H722c-16.2,0-29.4,13.2-29.4,29.4v15.6c0,16.2,13.2,29.4,29.4,29.4h55.4
					c16.2,0,29.4-13.2,29.4-29.4v-15.6C806.8,341.7,793.6,328.5,777.4,328.5L777.4,328.5z"/>
			</g>
			<g>
				<path d="M578.6,403.2c6.7,0,12.1,5.4,12.1,12.1v15.6c0,6.7-5.4,12.1-12.1,12.1h-55.4c-6.7,0-12.1-5.4-12.1-12.1v-15.6
					c0-6.7,5.4-12.1,12.1-12.1H578.6 M578.6,385.9h-55.4c-16.2,0-29.4,13.2-29.4,29.4v15.6c0,16.2,13.2,29.4,29.4,29.4h55.4
					c16.2,0,29.4-13.2,29.4-29.4v-15.6C608,399.1,594.8,385.9,578.6,385.9L578.6,385.9z"/>
			</g>
			<g>
				<path d="M678.6,403.2c6.7,0,12.1,5.4,12.1,12.1v15.6c0,6.7-5.4,12.1-12.1,12.1h-55.4c-6.7,0-12.1-5.4-12.1-12.1v-15.6
					c0-6.7,5.4-12.1,12.1-12.1H678.6 M678.6,385.9h-55.4c-16.2,0-29.4,13.2-29.4,29.4v15.6c0,16.2,13.2,29.4,29.4,29.4h55.4
					c16.2,0,29.4-13.2,29.4-29.4v-15.6C707.9,399.1,694.7,385.9,678.6,385.9L678.6,385.9z"/>
			</g>
			<g>
				<path d="M777.4,403.2c6.7,0,12.1,5.4,12.1,12.1v15.6c0,6.7-5.4,12.1-12.1,12.1H722c-6.7,0-12.1-5.4-12.1-12.1v-15.6
					c0-6.7,5.4-12.1,12.1-12.1H777.4 M777.4,385.9H722c-16.2,0-29.4,13.2-29.4,29.4v15.6c0,16.2,13.2,29.4,29.4,29.4h55.4
					c16.2,0,29.4-13.2,29.4-29.4v-15.6C806.8,399.1,793.6,385.9,777.4,385.9L777.4,385.9z"/>
			</g>
			<g>
				<path d="M578.6,460.6c6.7,0,12.1,5.4,12.1,12.1v15.6c0,6.7-5.4,12.1-12.1,12.1h-55.4c-6.7,0-12.1-5.4-12.1-12.1v-15.6
					c0-6.7,5.4-12.1,12.1-12.1H578.6 M578.6,443.3h-55.4c-16.2,0-29.4,13.2-29.4,29.4v15.6c0,16.2,13.2,29.4,29.4,29.4h55.4
					c16.2,0,29.4-13.2,29.4-29.4v-15.6C608,456.5,594.8,443.3,578.6,443.3L578.6,443.3z"/>
			</g>
			<g>
				<path d="M678.6,460.6c6.7,0,12.1,5.4,12.1,12.1v15.6c0,6.7-5.4,12.1-12.1,12.1h-55.4c-6.7,0-12.1-5.4-12.1-12.1v-15.6
					c0-6.7,5.4-12.1,12.1-12.1H678.6 M678.6,443.3h-55.4c-16.2,0-29.4,13.2-29.4,29.4v15.6c0,16.2,13.2,29.4,29.4,29.4h55.4
					c16.2,0,29.4-13.2,29.4-29.4v-15.6C707.9,456.5,694.7,443.3,678.6,443.3L678.6,443.3z"/>
			</g>
			<g>
				<path d="M777.4,460.6c6.7,0,12.1,5.4,12.1,12.1v15.6c0,6.7-5.4,12.1-12.1,12.1H722c-6.7,0-12.1-5.4-12.1-12.1v-15.6
					c0-6.7,5.4-12.1,12.1-12.1H777.4 M777.4,443.3H722c-16.2,0-29.4,13.2-29.4,29.4v15.6c0,16.2,13.2,29.4,29.4,29.4h55.4
					c16.2,0,29.4-13.2,29.4-29.4v-15.6C806.8,456.5,793.6,443.3,777.4,443.3L777.4,443.3z"/>
			</g>
			<g>
				<path d="M578.6,518c6.7,0,12.1,5.4,12.1,12.1v15.6c0,6.7-5.4,12.1-12.1,12.1h-55.4c-6.7,0-12.1-5.4-12.1-12.1v-15.6
					c0-6.7,5.4-12.1,12.1-12.1H578.6 M578.6,500.7h-55.4c-16.2,0-29.4,13.2-29.4,29.4v15.6c0,16.2,13.2,29.4,29.4,29.4h55.4
					c16.2,0,29.4-13.2,29.4-29.4v-15.6C608,513.9,594.8,500.7,578.6,500.7L578.6,500.7z"/>
			</g>
			<g>
				<path d="M678.6,518c6.7,0,12.1,5.4,12.1,12.1v15.6c0,6.7-5.4,12.1-12.1,12.1h-55.4c-6.7,0-12.1-5.4-12.1-12.1v-15.6
					c0-6.7,5.4-12.1,12.1-12.1H678.6 M678.6,500.7h-55.4c-16.2,0-29.4,13.2-29.4,29.4v15.6c0,16.2,13.2,29.4,29.4,29.4h55.4
					c16.2,0,29.4-13.2,29.4-29.4v-15.6C707.9,513.9,694.7,500.7,678.6,500.7L678.6,500.7z"/>
			</g>
			<g>
				<path d="M777.4,518c6.7,0,12.1,5.4,12.1,12.1v15.6c0,6.7-5.4,12.1-12.1,12.1H722c-6.7,0-12.1-5.4-12.1-12.1v-15.6
					c0-6.7,5.4-12.1,12.1-12.1H777.4 M777.4,500.7H722c-16.2,0-29.4,13.2-29.4,29.4v15.6c0,16.2,13.2,29.4,29.4,29.4h55.4
					c16.2,0,29.4-13.2,29.4-29.4v-15.6C806.8,513.9,793.6,500.7,777.4,500.7L777.4,500.7z"/>
			</g>
		</g>
	</g>
</g>
<g>
	<g>
		<g>
			<path d="M311.7-202c-0.6,0-1.3-0.1-1.9-0.3L250-219.6c-2.3-0.7-4.1-2.5-4.7-4.9L230.5-285c-0.6-2.3,0.1-4.8,1.9-6.5l44.9-43.1
				c1.7-1.7,4.2-2.3,6.5-1.6l59.8,17.4c2.3,0.7,4.1,2.5,4.7,4.9l14.8,60.5c0.6,2.3-0.1,4.8-1.9,6.5l-44.9,43.1
				C315.1-202.7,313.4-202,311.7-202z M257.5-231.5l52.3,15.2l39.3-37.7l-13-52.9l-52.3-15.2l-39.3,37.7L257.5-231.5z"/>
		</g>
		<g>
			<path d="M296.8-235.8c-15.4,0-28.7-10.5-32.4-25.4c-2.1-8.7-0.8-17.6,3.9-25.2c4.6-7.6,11.9-13,20.6-15.1c2.6-0.6,5.3-1,8-1
				c15.4,0,28.7,10.5,32.4,25.4c2.1,8.7,0.8,17.6-3.9,25.2c-4.6,7.6-11.9,13-20.6,15.1C302.2-236.2,299.5-235.8,296.8-235.8z
				 M296.9-289.1c-1.6,0-3.2,0.2-4.8,0.6c-5.2,1.3-9.5,4.5-12.3,9c-2.8,4.5-3.6,9.9-2.3,15.1c2.2,8.9,10.1,15.2,19.3,15.2
				c1.6,0,3.2-0.2,4.8-0.6c5.2-1.3,9.5-4.5,12.3-9c2.8-4.5,3.6-9.9,2.3-15.1C314-282.9,306-289.1,296.9-289.1z"/>
		</g>
	</g>
	<g>
		<g>
			<g>
				<path d="M442.2-197.3c-0.9,0-1.8-0.2-2.7-0.6l-58.4-25.3c-3.4-1.5-5-5.4-3.5-8.8c1.5-3.4,5.5-5,8.8-3.5l58.4,25.3
					c3.4,1.5,5,5.4,3.5,8.8C447.3-198.8,444.8-197.3,442.2-197.3z"/>
			</g>
			<g>
				<path d="M424.4-179.6c-0.9,0-1.8-0.2-2.7-0.6l-58.4-25.3c-3.4-1.5-5-5.4-3.5-8.8c1.5-3.4,5.4-5,8.8-3.5l58.4,25.3
					c3.4,1.5,5,5.4,3.5,8.8C429.5-181.1,427-179.6,424.4-179.6z"/>
			</g>
			<g>
				<path d="M406.7-161.8c-0.9,0-1.8-0.2-2.7-0.6l-58.4-25.3c-3.4-1.5-5-5.4-3.5-8.8c1.5-3.4,5.4-5,8.8-3.5l58.4,25.3
					c3.4,1.5,5,5.4,3.5,8.8C411.7-163.3,409.3-161.8,406.7-161.8z"/>
			</g>
			<g>
				<path d="M388.9-144c-0.9,0-1.8-0.2-2.7-0.6l-58.4-25.3c-3.4-1.5-5-5.4-3.5-8.8c1.5-3.4,5.4-5,8.8-3.5l58.4,25.3
					c3.4,1.5,5,5.4,3.5,8.8C394-145.5,391.5-144,388.9-144z"/>
			</g>
		</g>
		<g>
			<path d="M356.4-111.8c-1.8,0-3.5-0.7-4.8-2l-41.6-41.6c-2.6-2.6-2.6-6.9,0-9.5l136.7-136.7c2.6-2.6,6.9-2.6,9.5,0l41.6,41.6
				c1.3,1.3,2,3,2,4.8c0,1.8-0.7,3.5-2,4.8L361.1-113.8C359.9-112.5,358.2-111.8,356.4-111.8z M324.3-160.1l32,32l127.2-127.2
				l-32-32L324.3-160.1z"/>
		</g>
		<g>
			<path d="M290-86.9c-1.8,0-3.5-0.7-4.8-2c-1.4-1.4-2.1-3.4-1.9-5.4c0.4-4.1,4.2-40.5,9.6-52.6c0.9-2,2.7-3.5,4.9-3.9
				c2.2-0.4,4.4,0.3,6,1.9l41.6,41.6c1.6,1.6,2.3,3.8,1.9,6c-0.4,2.2-1.9,4-3.9,4.9c-12.2,5.4-48.5,9.2-52.6,9.6
				C290.4-86.9,290.2-86.9,290-86.9z M302.3-131.5c-1.9,9.1-3.6,21.2-4.7,30.2c9-1.1,21.1-2.8,30.2-4.7L302.3-131.5z"/>
		</g>
		<g>
			<path d="M515.4-228.1c-1.8,0-3.5-0.7-4.8-2l-84.3-84.3c-2.6-2.6-2.6-6.9,0-9.5l28.9-28.9c2.5-2.5,7-2.5,9.5,0l84.3,84.3
				c2.6,2.6,2.6,6.9,0,9.5L520.1-230C518.9-228.8,517.2-228.1,515.4-228.1z M440.6-319.1l74.8,74.8l19.3-19.3L460-338.4L440.6-319.1
				z"/>
		</g>
	</g>
</g>
<g>
	<g>
		<path d="M341.7-318c-0.1,0-0.2-0.1-0.3-0.2l-3.3-5.7c-0.1-0.2,0-0.4,0.1-0.5c0.2-0.1,0.4,0,0.5,0.1l3.3,5.7c0.1,0.2,0,0.4-0.1,0.5
			C341.8-318,341.8-318,341.7-318z"/>
	</g>
	<g>
		<path d="M343.5-318c-0.1,0-0.2-0.1-0.3-0.2l-3.3-5.7c-0.1-0.2,0-0.4,0.1-0.5c0.2-0.1,0.4,0,0.5,0.1l3.3,5.7c0.1,0.2,0,0.4-0.1,0.5
			C343.7-318,343.6-318,343.5-318z"/>
	</g>
	<g>
		<path d="M339.9-318c-0.1,0-0.2-0.1-0.3-0.2l-5.3-9.2c-0.1-0.2,0-0.4,0.1-0.5c0.2-0.1,0.4,0,0.5,0.1l5.3,9.2c0.1,0.2,0,0.4-0.1,0.5
			C340-318,340-318,339.9-318z"/>
	</g>
	<g>
		<path d="M339.9-318c-0.1,0-0.2-0.1-0.3-0.2l-5.3-9.2c-0.1-0.2,0-0.4,0.1-0.5c0.2-0.1,0.4,0,0.5,0.1l5.3,9.2c0.1,0.2,0,0.4-0.1,0.5
			C340-318,340-318,339.9-318z"/>
	</g>
	<g>
		<g>
			<path d="M343.8-321c-0.1,0-0.1,0-0.2-0.1c-0.2-0.1-0.2-0.3-0.1-0.5l2.4-4.1c0.1-0.2,0.3-0.2,0.5-0.1c0.2,0.1,0.2,0.3,0.1,0.5
				l-2.4,4.1C344.1-321,343.9-321,343.8-321z"/>
		</g>
		<g>
			<path d="M352.1-320.8h-8.3c-0.2,0-0.4-0.2-0.4-0.4s0.2-0.4,0.4-0.4h8.3c0.2,0,0.4,0.2,0.4,0.4S352.3-320.8,352.1-320.8z"/>
		</g>
	</g>
	<g>
		<path d="M347.4-314.5c-0.1,0-0.2-0.1-0.3-0.2l-5.3-9.2c-0.1-0.2,0-0.4,0.1-0.5c0.2-0.1,0.4,0,0.5,0.1l5.3,9.2
			c0.1,0.2,0,0.4-0.1,0.5C347.5-314.5,347.4-314.5,347.4-314.5z"/>
	</g>
	<g>
		<g>
			<path d="M335.5-316.6c-0.1,0-0.1,0-0.2-0.1c-0.2-0.1-0.2-0.3-0.1-0.5l2.4-4.1c0.1-0.2,0.3-0.2,0.5-0.1c0.2,0.1,0.2,0.3,0.1,0.5
				l-2.4,4.1C335.7-316.6,335.6-316.6,335.5-316.6z"/>
		</g>
		<g>
			<path d="M338-320.9h-8.3c-0.2,0-0.4-0.2-0.4-0.4s0.2-0.4,0.4-0.4h8.3c0.2,0,0.4,0.2,0.4,0.4S338.2-320.9,338-320.9z"/>
		</g>
	</g>
</g>
<g>
	<g>
		<g>
			<path d="M176.9,210c-1.7,0-3.4-0.9-4.4-2.5l-46-79.7c-1.4-2.4-0.6-5.5,1.8-6.9c2.4-1.4,5.5-0.6,6.9,1.8l46.1,79.7
				c1.4,2.4,0.6,5.5-1.8,6.9C178.6,209.8,177.8,210,176.9,210z"/>
		</g>
	</g>
	<g>
		<g>
			<path d="M202.1,210c-1.7,0-3.4-0.9-4.4-2.5l-46-79.7c-1.4-2.4-0.6-5.5,1.8-6.9c2.4-1.4,5.5-0.6,6.9,1.8l46,79.7
				c1.4,2.4,0.6,5.5-1.8,6.9C203.8,209.8,202.9,210,202.1,210z"/>
		</g>
	</g>
	<g>
		<g>
			<path d="M151.7,209.8c-1.7,0-3.4-0.9-4.4-2.5L73.2,78.9c-1.4-2.4-0.6-5.5,1.8-6.9c2.4-1.4,5.5-0.6,6.9,1.8L156,202.2
				c1.4,2.4,0.6,5.5-1.8,6.9C153.4,209.5,152.5,209.8,151.7,209.8z"/>
		</g>
	</g>
	<g>
		<g>
			<path d="M151.7,209.8c-1.7,0-3.4-0.9-4.4-2.5L73.2,78.9c-1.4-2.4-0.6-5.5,1.8-6.9c2.4-1.4,5.5-0.6,6.9,1.8L156,202.2
				c1.4,2.4,0.6,5.5-1.8,6.9C153.4,209.5,152.5,209.8,151.7,209.8z"/>
		</g>
	</g>
	<g>
		<g>
			<path d="M206.1,168.6c-0.9,0-1.7-0.2-2.5-0.7c-2.4-1.4-3.2-4.5-1.8-6.9l33.6-56.9c1.4-2.4,4.5-3.2,6.9-1.8
				c2.4,1.4,3.2,4.5,1.8,6.9l-33.6,56.9C209.5,167.7,207.8,168.6,206.1,168.6z"/>
		</g>
	</g>
	<g>
		<g>
			<path d="M255.4,258.7c-1.7,0-3.4-0.9-4.4-2.5l-74.2-128.4c-1.4-2.4-0.6-5.5,1.8-6.9c2.4-1.4,5.5-0.6,6.9,1.8l74.2,128.4
				c1.4,2.4,0.6,5.5-1.8,6.9C257.1,258.5,256.2,258.7,255.4,258.7z"/>
		</g>
	</g>
	<g>
		<g>
			<path d="M90.2,229.7c-0.9,0-1.7-0.2-2.5-0.7c-2.4-1.4-3.2-4.5-1.8-6.9l33.6-56.9c1.4-2.4,4.5-3.2,6.9-1.8
				c2.4,1.4,3.2,4.5,1.8,6.9l-33.6,56.9C93.6,228.8,92,229.7,90.2,229.7z"/>
		</g>
	</g>
	<g>
		<g>
			<path d="M248.1,178.9c-19.4,0-29.2-5.3-38.6-10.5c-2.4-1.3-4.7-2.5-7.1-3.7c-2.4-1.1-3.4-4-2.3-6.4c1.1-2.4,4-3.4,6.4-2.3
				c2.7,1.3,5.2,2.6,7.6,4c8.8,4.8,17.1,9.3,34.1,9.3c17,0,25.3-4.5,34.1-9.3c9.5-5.1,19.2-10.5,38.6-10.5c2.6,0,4.8,2.1,4.8,4.8
				c0,2.6-2.1,4.8-4.8,4.8c-17,0-25.3,4.5-34.1,9.3C277.3,173.6,267.5,178.9,248.1,178.9z"/>
		</g>
		<g>
			<path d="M320.8,178.9c-19.4,0-29.2-5.3-38.6-10.5c-8.8-4.8-17.1-9.3-34.1-9.3c-17,0-25.3,4.5-34.1,9.3l-1,0.5
				c-1.1,0.6-2.3,1.2-3.4,1.8c-2.3,1.2-5.2,0.3-6.4-2c-1.2-2.3-0.3-5.2,2-6.4c1.1-0.6,2.2-1.1,3.2-1.7l1-0.5
				c9.5-5.1,19.2-10.5,38.6-10.5c19.4,0,29.2,5.3,38.6,10.5c8.8,4.8,17.1,9.3,34.1,9.3c2.6,0,4.8,2.1,4.8,4.8
				C325.6,176.8,323.4,178.9,320.8,178.9z"/>
		</g>
	</g>
	<g>
		<g>
			<path d="M81.9,178.9c-19.4,0-29.2-5.3-38.6-10.5c-8.8-4.8-17.1-9.3-34.1-9.3c-2.6,0-4.8-2.1-4.8-4.8c0-2.6,2.1-4.8,4.8-4.8
				c19.4,0,29.2,5.3,38.6,10.5c8.8,4.8,17.1,9.3,34,9.3c17,0,25.3-4.5,34.1-9.3c2.4-1.3,4.9-2.7,7.6-4c2.4-1.1,5.2-0.1,6.4,2.3
				c1.1,2.4,0.1,5.2-2.3,6.4c-2.4,1.2-4.7,2.4-7.1,3.7C111,173.6,101.3,178.9,81.9,178.9z"/>
		</g>
		<g>
			<path d="M9.2,178.9c-2.6,0-4.8-2.1-4.8-4.8c0-2.6,2.1-4.8,4.8-4.8c17,0,25.3-4.5,34.1-9.3c9.5-5.1,19.2-10.5,38.6-10.5
				c19.4,0,29.2,5.3,38.6,10.5l1,0.5c1.1,0.6,2.1,1.2,3.2,1.7c2.3,1.2,3.3,4.1,2,6.4c-1.2,2.3-4.1,3.3-6.4,2
				c-1.1-0.6-2.3-1.2-3.4-1.8l-1-0.5c-8.8-4.8-17.1-9.3-34-9.3c-17,0-25.3,4.5-34.1,9.3C38.4,173.6,28.6,178.9,9.2,178.9z"/>
		</g>
	</g>
</g>
</svg>
