<?xml version="1.0" encoding="utf-8"?>
<!-- Generator: Adobe Illustrator 18.0.0, SVG Export Plug-In . SVG Version: 6.00 Build 0)  -->
<!DOCTYPE svg PUBLIC "-//W3C//DTD SVG 1.1 Tiny//EN" "http://www.w3.org/Graphics/SVG/1.1/DTD/svg11-tiny.dtd">
<svg version="1.1" baseProfile="tiny" id="Layer_1" xmlns="http://www.w3.org/2000/svg" xmlns:xlink="http://www.w3.org/1999/xlink"
	 x="0px" y="0px" viewBox="0 0 330 330" fill="#fff" xml:space="preserve">
<g>
	<g>
		<g>
			<path d="M464.7-23.8c-1.9,0-3.7-0.7-5.1-2.1l-37.7-37.7c-2.8-2.8-2.8-7.4,0-10.3l37.7-37.7c2.8-2.8,7.4-2.8,10.3,0l37.7,37.7
				c2.8,2.8,2.8,7.4,0,10.3L469.8-26C468.4-24.6,466.5-23.8,464.7-23.8z M437.3-68.8l27.4,27.4l27.4-27.4l-27.4-27.4L437.3-68.8z"/>
		</g>
		<g>
			<path d="M464.7,51.5c-1.9,0-3.7-0.7-5.1-2.1l-37.7-37.7c-2.8-2.8-2.8-7.4,0-10.3l37.7-37.7c2.8-2.8,7.4-2.8,10.3,0l37.7,37.7
				c2.8,2.8,2.8,7.4,0,10.3l-37.7,37.7C468.4,50.8,466.5,51.5,464.7,51.5z M437.3,6.6L464.7,34l27.4-27.4l-27.4-27.4L437.3,6.6z"/>
		</g>
	</g>
	<g>
		<g>
			<path d="M464.7,127.9c-1.9,0-3.7-0.7-5.1-2.1l-37.7-37.7c-2.8-2.8-2.8-7.4,0-10.3l37.7-37.7c2.8-2.8,7.4-2.8,10.3,0l37.7,37.7
				c2.8,2.8,2.8,7.4,0,10.3l-37.7,37.7C468.4,127.2,466.5,127.9,464.7,127.9z M437.3,82.9l27.4,27.4l27.4-27.4l-27.4-27.4
				L437.3,82.9z"/>
		</g>
		<g>
			<path d="M464.7,203.2c-1.9,0-3.7-0.7-5.1-2.1l-37.7-37.7c-2.8-2.8-2.8-7.4,0-10.3l37.7-37.7c2.8-2.8,7.4-2.8,10.3,0l37.7,37.7
				c2.8,2.8,2.8,7.4,0,10.3l-37.7,37.7C468.4,202.5,466.5,203.2,464.7,203.2z M437.3,158.3l27.4,27.4l27.4-27.4l-27.4-27.4
				L437.3,158.3z"/>
		</g>
	</g>
	<g>
		<g>
			<path d="M540-23.8c-1.9,0-3.7-0.7-5.1-2.1l-37.7-37.7c-2.8-2.8-2.8-7.4,0-10.3l37.7-37.7c2.8-2.8,7.4-2.8,10.3,0l37.7,37.7
				c2.8,2.8,2.8,7.4,0,10.3L545.1-26C543.7-24.6,541.9-23.8,540-23.8z M512.6-68.8L540-41.4l27.4-27.4L540-96.2L512.6-68.8z"/>
		</g>
		<g>
			<path d="M540,51.5c-1.9,0-3.7-0.7-5.1-2.1l-37.7-37.7c-2.8-2.8-2.8-7.4,0-10.3l37.7-37.7c2.8-2.8,7.4-2.8,10.3,0l37.7,37.7
				c2.8,2.8,2.8,7.4,0,10.3l-37.7,37.7C543.7,50.8,541.9,51.5,540,51.5z M512.6,6.6L540,34l27.4-27.4L540-20.8L512.6,6.6z"/>
		</g>
	</g>
	<g>
		<g>
			<path d="M540,127.9c-1.9,0-3.7-0.7-5.1-2.1l-37.7-37.7c-2.8-2.8-2.8-7.4,0-10.3l37.7-37.7c2.8-2.8,7.4-2.8,10.3,0l37.7,37.7
				c2.8,2.8,2.8,7.4,0,10.3l-37.7,37.7C543.7,127.2,541.9,127.9,540,127.9z M512.6,82.9l27.4,27.4l27.4-27.4L540,55.5L512.6,82.9z"
				/>
		</g>
		<g>
			<path d="M540,203.2c-1.9,0-3.7-0.7-5.1-2.1l-37.7-37.7c-2.8-2.8-2.8-7.4,0-10.3l37.7-37.7c2.8-2.8,7.4-2.8,10.3,0l37.7,37.7
				c2.8,2.8,2.8,7.4,0,10.3l-37.7,37.7C543.7,202.5,541.9,203.2,540,203.2z M512.6,158.3l27.4,27.4l27.4-27.4L540,130.9L512.6,158.3
				z"/>
		</g>
	</g>
	<g>
		<g>
			<path d="M615.3-23.8c-1.9,0-3.7-0.7-5.1-2.1l-37.7-37.7c-2.8-2.8-2.8-7.4,0-10.3l37.7-37.7c2.8-2.8,7.4-2.8,10.3,0l37.7,37.7
				c2.8,2.8,2.8,7.4,0,10.3L620.5-26C619-24.6,617.2-23.8,615.3-23.8z M587.9-68.8l27.4,27.4l27.4-27.4l-27.4-27.4L587.9-68.8z"/>
		</g>
		<g>
			<path d="M615.3,51.5c-1.9,0-3.7-0.7-5.1-2.1l-37.7-37.7c-2.8-2.8-2.8-7.4,0-10.3l37.7-37.7c2.8-2.8,7.4-2.8,10.3,0l37.7,37.7
				c2.8,2.8,2.8,7.4,0,10.3l-37.7,37.7C619,50.8,617.2,51.5,615.3,51.5z M587.9,6.6L615.3,34l27.4-27.4l-27.4-27.4L587.9,6.6z"/>
		</g>
	</g>
	<g>
		<g>
			<path d="M615.3,127.9c-1.9,0-3.7-0.7-5.1-2.1l-37.7-37.7c-2.8-2.8-2.8-7.4,0-10.3l37.7-37.7c2.8-2.8,7.4-2.8,10.3,0l37.7,37.7
				c2.8,2.8,2.8,7.4,0,10.3l-37.7,37.7C619,127.2,617.2,127.9,615.3,127.9z M587.9,82.9l27.4,27.4l27.4-27.4l-27.4-27.4L587.9,82.9z
				"/>
		</g>
		<g>
			<path d="M615.3,203.2c-1.9,0-3.7-0.7-5.1-2.1l-37.7-37.7c-2.8-2.8-2.8-7.4,0-10.3l37.7-37.7c2.8-2.8,7.4-2.8,10.3,0l37.7,37.7
				c2.8,2.8,2.8,7.4,0,10.3l-37.7,37.7C619,202.5,617.2,203.2,615.3,203.2z M587.9,158.3l27.4,27.4l27.4-27.4l-27.4-27.4
				L587.9,158.3z"/>
		</g>
	</g>
	<g>
		<g>
			<path d="M690.7-23.8c-1.9,0-3.7-0.7-5.1-2.1l-37.7-37.7c-2.8-2.8-2.8-7.4,0-10.3l37.7-37.7c2.8-2.8,7.4-2.8,10.3,0l37.7,37.7
				c2.8,2.8,2.8,7.4,0,10.3L695.8-26C694.4-24.6,692.5-23.8,690.7-23.8z M663.3-68.8l27.4,27.4l27.4-27.4l-27.4-27.4L663.3-68.8z"/>
		</g>
		<g>
			<path d="M690.7,51.5c-1.9,0-3.7-0.7-5.1-2.1l-37.7-37.7c-2.8-2.8-2.8-7.4,0-10.3l37.7-37.7c2.8-2.8,7.4-2.8,10.3,0l37.7,37.7
				c2.8,2.8,2.8,7.4,0,10.3l-37.7,37.7C694.4,50.8,692.5,51.5,690.7,51.5z M663.3,6.6L690.7,34l27.4-27.4l-27.4-27.4L663.3,6.6z"/>
		</g>
	</g>
	<g>
		<g>
			<path d="M690.7,127.9c-1.9,0-3.7-0.7-5.1-2.1l-37.7-37.7c-2.8-2.8-2.8-7.4,0-10.3l37.7-37.7c2.8-2.8,7.4-2.8,10.3,0l37.7,37.7
				c2.8,2.8,2.8,7.4,0,10.3l-37.7,37.7C694.4,127.2,692.5,127.9,690.7,127.9z M663.3,82.9l27.4,27.4l27.4-27.4l-27.4-27.4
				L663.3,82.9z"/>
		</g>
		<g>
			<path d="M690.7,203.2c-1.9,0-3.7-0.7-5.1-2.1l-37.7-37.7c-2.8-2.8-2.8-7.4,0-10.3l37.7-37.7c2.8-2.8,7.4-2.8,10.3,0l37.7,37.7
				c2.8,2.8,2.8,7.4,0,10.3l-37.7,37.7C694.4,202.5,692.5,203.2,690.7,203.2z M663.3,158.3l27.4,27.4l27.4-27.4l-27.4-27.4
				L663.3,158.3z"/>
		</g>
	</g>
</g>
<g>
	<g>
		<g>
			<path d="M-396,271.6c-4.8,0-8.6-3.9-8.6-8.6V1.8c0-4.8,3.9-8.6,8.6-8.6c4.8,0,8.6,3.9,8.6,8.6V263
				C-387.4,267.7-391.2,271.6-396,271.6z"/>
		</g>
		<g>
			<path d="M-361.3,271.6c-4.8,0-8.6-3.9-8.6-8.6V-10.6c0-4.8,3.9-8.6,8.6-8.6s8.6,3.9,8.6,8.6V263
				C-352.7,267.7-356.6,271.6-361.3,271.6z"/>
		</g>
		<g>
			<path d="M-326.7,271.6c-4.8,0-8.6-3.9-8.6-8.6V-24c0-4.8,3.9-8.6,8.6-8.6c4.8,0,8.6,3.9,8.6,8.6v287
				C-318,267.7-321.9,271.6-326.7,271.6z"/>
		</g>
		<g>
			<path d="M-292,271.6c-4.8,0-8.6-3.9-8.6-8.6V-10.6c0-4.8,3.9-8.6,8.6-8.6s8.6,3.9,8.6,8.6V263
				C-283.3,267.7-287.2,271.6-292,271.6z"/>
		</g>
		<g>
			<path d="M-257.3,271.6c-4.8,0-8.6-3.9-8.6-8.6V1.8c0-4.8,3.9-8.6,8.6-8.6s8.6,3.9,8.6,8.6V263
				C-248.7,267.7-252.5,271.6-257.3,271.6z"/>
		</g>
	</g>
	<g>
		<path d="M-221.1,273.7h-207.6c-4.8,0-8.6-3.9-8.6-8.6s3.9-8.6,8.6-8.6h207.6c4.8,0,8.6,3.9,8.6,8.6S-216.4,273.7-221.1,273.7z"/>
	</g>
	<g>
		<path d="M-222.9,47.5h-207.6c-4.8,0-8.6-3.9-8.6-8.6s3.9-8.6,8.6-8.6h207.6c4.8,0,8.6,3.9,8.6,8.6S-218.1,47.5-222.9,47.5z"/>
	</g>
	<g>
		<path d="M-430.6,273.7h-48.3c-4.8,0-8.6-3.9-8.6-8.6V-38.4c0-4.8,3.9-8.6,8.6-8.6h48.3c4.8,0,8.6,3.9,8.6,8.6v303.4
			C-421.9,269.8-425.8,273.7-430.6,273.7z M-470.2,256.4h31V-29.7h-31V256.4z"/>
	</g>
	<g>
		<path d="M-174.2,273.7h-48.3c-4.8,0-8.6-3.9-8.6-8.6V-38.4c0-4.8,3.9-8.6,8.6-8.6h48.3c4.8,0,8.6,3.9,8.6,8.6v303.4
			C-165.6,269.8-169.5,273.7-174.2,273.7z M-213.9,256.4h31V-29.7h-31V256.4z"/>
	</g>
	<g>
		<path d="M-222.9,96h-207.6c-4.8,0-8.6-3.9-8.6-8.6c0-4.8,3.9-8.6,8.6-8.6h207.6c4.8,0,8.6,3.9,8.6,8.6
			C-214.2,92.1-218.1,96-222.9,96z"/>
	</g>
	<g>
		<path d="M-222.9,187.9h-207.6c-4.8,0-8.6-3.9-8.6-8.6c0-4.8,3.9-8.6,8.6-8.6h207.6c4.8,0,8.6,3.9,8.6,8.6
			C-214.2,184.1-218.1,187.9-222.9,187.9z"/>
	</g>
</g>
<g>
	<g>
		<g>
			<path d="M123.2,281.3c-31,0-60.2-12.1-82.2-34.1c-22-22-34.1-51.2-34.1-82.2c0-30.9,12.1-60,33.9-81.9
				c18.6-18.6,43.2-30.5,69.5-33.5l1.4-0.1c10.3-0.9,25.8-2.4,37.2,4.4c7.3,4.3,12.2,11.6,13.3,20.1c1.1,8.3-1.8,17-7.4,22.6
				c-3.3,3.3-8.7,3.3-12,0c-3.3-3.3-3.3-8.7,0-12c2-2,3-5.3,2.6-8.5c-0.4-3.2-2.3-6-5.1-7.6c-6.7-4-19.4-2.9-27-2.2l-1.2,0.1
				c-22.3,2.6-43.4,12.8-59.3,28.7c-18.7,18.7-29,43.5-29,69.9c0,26.5,10.3,51.4,29.1,70.2c18.8,18.8,43.7,29.1,70.2,29.1
				c0,0,0,0,0,0c4.7,0,10.2-0.8,13.9-1.5c2.2-0.8,4-1.9,5.5-3.3c2.6-2.6,3.6-6.2,2.9-9.8c-0.6-3.2-2.5-5.6-4.9-6.6
				c-4.4-1.7-6.5-6.7-4.7-11c1.7-4.4,6.7-6.5,11-4.7c7.7,3.1,13.4,10.2,15.2,18.9c1.9,9.2-0.9,18.6-7.5,25.2
				c-3.3,3.3-7.4,5.8-12.2,7.4l-0.5,0.2c-0.5,0.2-0.9,0.3-1.4,0.3l-0.6,0.1C135.6,280.4,129.2,281.3,123.2,281.3
				C123.2,281.3,123.2,281.3,123.2,281.3z"/>
		</g>
		<g>
			<g>
				<path d="M206.8,281.3C206.8,281.3,206.8,281.3,206.8,281.3c-6,0-12.4-1-16.8-1.7l-0.4-0.1c-0.5-0.1-0.9-0.2-1.4-0.3l-0.5-0.2
					c-4.8-1.6-8.9-4.1-12.2-7.4c-6.6-6.6-9.4-16.1-7.5-25.3c1.8-8.7,7.5-15.8,15.2-18.9c4.4-1.7,9.3,0.4,11,4.7
					c1.7,4.3-0.4,9.3-4.7,11c-2.4,1-4.2,3.4-4.8,6.6c-0.7,3.6,0.3,7.3,2.9,9.9c1.4,1.4,3.2,2.5,5.5,3.3c3.9,0.6,9.2,1.5,13.9,1.5
					c0,0,0,0,0,0c26.5,0,51.4-10.3,70.2-29.1c18.8-18.8,29.1-43.7,29.1-70.2c0-26.4-10.3-51.2-29-69.9c-15.9-15.9-37-26.1-59.5-28.7
					l-1-0.1c-7.6-0.7-20.3-1.9-26.9,2.1c-2.9,1.7-4.8,4.5-5.2,7.7c-0.4,3.2,0.6,6.5,2.6,8.5c3.3,3.3,3.3,8.7,0,12
					c-3.3,3.3-8.7,3.3-12,0c-5.6-5.6-8.4-14.3-7.4-22.6c1.1-8.5,6-15.8,13.4-20.1c11.3-6.8,26.8-5.3,37.1-4.4l1.2,0.1
					c26.5,3.1,51.2,15,69.7,33.6c21.9,21.9,33.9,51,33.9,81.9c0,31-12.1,60.2-34.1,82.2C267,269.2,237.8,281.3,206.8,281.3z"/>
			</g>
			<g>
				<path d="M252,162.6c-1.9,0-3.8-0.2-5.7-0.6c-8.7-1.8-15.8-7.5-18.9-15.2c-1.7-4.3,0.4-9.3,4.7-11c4.4-1.7,9.3,0.4,11,4.7
					c1,2.4,3.4,4.2,6.6,4.8c3.6,0.7,7.3-0.3,9.9-2.9c1.4-1.4,2.5-3.2,3.3-5.5c0.6-3.9,1.5-9.2,1.5-13.9c0-26.5-10.3-51.4-29.1-70.2
					c-18.8-18.8-43.7-29.1-70.2-29.1c-26.4,0-51.2,10.3-69.9,29c-15.9,15.9-26.1,37-28.7,59.5l-0.1,1c-0.7,7.6-1.9,20.3,2.1,26.9
					c1.7,2.9,4.5,4.8,7.7,5.2c3.2,0.4,6.5-0.6,8.5-2.6c3.3-3.3,8.7-3.3,12,0c3.3,3.3,3.3,8.7,0,12c-5.6,5.6-14.3,8.4-22.6,7.4
					c-8.5-1.1-15.8-6-20.1-13.4c-6.8-11.3-5.3-26.8-4.4-37.1l0.1-1.2c3.1-26.5,15-51.2,33.6-69.7C105.1,19,134.1,6.9,165,6.9
					c31,0,60.2,12.1,82.2,34.1c22,22,34.1,51.2,34.1,82.2c0,6-1,12.4-1.7,16.8l-0.1,0.4c-0.1,0.5-0.2,0.9-0.3,1.4l-0.2,0.5
					c-1.6,4.8-4.1,8.9-7.4,12.2C266.4,159.8,259.3,162.6,252,162.6z"/>
			</g>
			<g>
				<path d="M165,323.1c-30.9,0-60-12.1-81.9-33.9c-18.6-18.6-30.5-43.2-33.5-69.5l-0.1-1.4c-0.9-10.3-2.4-25.8,4.5-37.2
					c4.3-7.3,11.6-12.2,20.1-13.3c8.3-1.1,17,1.8,22.6,7.4c3.3,3.3,3.3,8.7,0,12c-3.3,3.3-8.7,3.3-12,0c-2-2-5.3-3-8.5-2.6
					c-3.2,0.4-6,2.3-7.6,5.1c-4,6.7-2.9,19.4-2.2,27l0.1,1.2c2.6,22.3,12.8,43.4,28.7,59.3c18.7,18.7,43.5,29,69.9,29
					c26.5,0,51.4-10.3,70.2-29.1c18.8-18.8,29.1-43.7,29.1-70.2c0-4.7-0.8-10.2-1.5-13.9c-0.8-2.2-1.9-4-3.3-5.5
					c-2.6-2.6-6.2-3.6-9.8-2.9c-3.2,0.6-5.6,2.5-6.6,4.9c-1.7,4.4-6.7,6.5-11,4.7c-4.4-1.7-6.5-6.7-4.7-11
					c3.1-7.7,10.2-13.4,18.9-15.2c9.2-1.9,18.6,0.9,25.2,7.5c3.3,3.3,5.8,7.4,7.4,12.2l0.2,0.5c0.2,0.5,0.3,0.9,0.3,1.4l0.1,0.6
					c0.7,4.2,1.7,10.6,1.7,16.6c0,31-12.1,60.2-34.1,82.2C225.2,311,196.1,323.1,165,323.1z"/>
			</g>
		</g>
	</g>
	<g>
		<g>
			<g>
				<path d="M117,125.4c-2.2,0-4.3-0.8-6-2.5L29.2,41.2c-3.3-3.3-3.3-8.7,0-12c3.3-3.3,8.7-3.3,12,0L123,111c3.3,3.3,3.3,8.7,0,12
					C121.3,124.6,119.1,125.4,117,125.4z"/>
			</g>
			<g>
				<path d="M294.8,303.3c-2.2,0-4.3-0.8-6-2.5L207,219c-3.3-3.3-3.3-8.7,0-12c3.3-3.3,8.7-3.3,12,0l81.8,81.8c3.3,3.3,3.3,8.7,0,12
					C299.2,302.5,297,303.3,294.8,303.3z"/>
			</g>
		</g>
		<g>
			<g>
				<path d="M213,125.4c-2.2,0-4.3-0.8-6-2.5c-3.3-3.3-3.3-8.7,0-12l81.8-81.8c3.3-3.3,8.7-3.3,12,0c3.3,3.3,3.3,8.7,0,12L219,123
					C217.4,124.6,215.2,125.4,213,125.4z"/>
			</g>
			<g>
				<path d="M35.2,303.3c-2.2,0-4.3-0.8-6-2.5c-3.3-3.3-3.3-8.7,0-12L111,207c3.3-3.3,8.7-3.3,12,0c3.3,3.3,3.3,8.7,0,12l-81.8,81.8
					C39.5,302.5,37.4,303.3,35.2,303.3z"/>
			</g>
		</g>
	</g>
</g>
<g>
	<g>
		<path d="M87.2-240.6L87.2-240.6c-3.7,0-4.8-3.1-4.8-4.7c0,0,0-0.1,0-0.1c0.4-1.6,1.9-2.5,4.3-2.5c3,0,6.8,1.5,7.2,3.5
			c0.2,0.8-0.2,2-2.6,3C89.7-240.9,88.4-240.6,87.2-240.6z M83.4-245.4c0,0.5,0.4,3.6,3.8,3.6h0c1,0,2.2-0.3,3.6-0.8
			c0.8-0.3,2.1-1,1.9-1.8c-0.2-1.2-3.2-2.6-6.1-2.6C85.6-246.9,83.8-246.7,83.4-245.4z"/>
	</g>
	<g>
		<g>
			<path d="M99.1-236H80.2c-0.3,0-0.5-0.2-0.5-0.5v-18.9c0-0.3,0.2-0.5,0.5-0.5h18.9c0.3,0,0.5,0.2,0.5,0.5v18.9
				C99.7-236.2,99.4-236,99.1-236z M80.7-237.1h17.9v-17.9H80.7V-237.1z"/>
		</g>
		<g>
			<g>
				<path d="M85.2-250.5c0.4,0,0.7,0.3,0.7,0.7v1c0,0.4-0.3,0.8-0.7,0.8h-3.4c-0.4,0-0.7-0.3-0.7-0.8v-1c0-0.4,0.3-0.7,0.7-0.7H85.2
					 M85.2-251.5h-3.4c-1,0-1.8,0.8-1.8,1.8v1c0,1,0.8,1.8,1.8,1.8h3.4c1,0,1.8-0.8,1.8-1.8v-1C87-250.7,86.2-251.5,85.2-251.5
					L85.2-251.5z"/>
			</g>
			<g>
				<path d="M91.4-250.5c0.4,0,0.7,0.3,0.7,0.7v1c0,0.4-0.3,0.8-0.7,0.8H88c-0.4,0-0.7-0.3-0.7-0.8v-1c0-0.4,0.3-0.7,0.7-0.7H91.4
					 M91.4-251.5H88c-1,0-1.8,0.8-1.8,1.8v1c0,1,0.8,1.8,1.8,1.8h3.4c1,0,1.8-0.8,1.8-1.8v-1C93.2-250.7,92.4-251.5,91.4-251.5
					L91.4-251.5z"/>
			</g>
			<g>
				<path d="M97.6-250.5c0.4,0,0.7,0.3,0.7,0.7v1c0,0.4-0.3,0.8-0.7,0.8h-3.4c-0.4,0-0.7-0.3-0.7-0.8v-1c0-0.4,0.3-0.7,0.7-0.7H97.6
					 M97.6-251.5h-3.4c-1,0-1.8,0.8-1.8,1.8v1c0,1,0.8,1.8,1.8,1.8h3.4c1,0,1.8-0.8,1.8-1.8v-1C99.4-250.7,98.6-251.5,97.6-251.5
					L97.6-251.5z"/>
			</g>
			<g>
				<path d="M85.2-246.9c0.4,0,0.7,0.3,0.7,0.7v1c0,0.4-0.3,0.7-0.7,0.7h-3.4c-0.4,0-0.7-0.3-0.7-0.7v-1c0-0.4,0.3-0.7,0.7-0.7H85.2
					 M85.2-248h-3.4c-1,0-1.8,0.8-1.8,1.8v1c0,1,0.8,1.8,1.8,1.8h3.4c1,0,1.8-0.8,1.8-1.8v-1C87-247.1,86.2-248,85.2-248L85.2-248z"
					/>
			</g>
			<g>
				<path d="M91.4-246.9c0.4,0,0.7,0.3,0.7,0.7v1c0,0.4-0.3,0.7-0.7,0.7H88c-0.4,0-0.7-0.3-0.7-0.7v-1c0-0.4,0.3-0.7,0.7-0.7H91.4
					 M91.4-248H88c-1,0-1.8,0.8-1.8,1.8v1c0,1,0.8,1.8,1.8,1.8h3.4c1,0,1.8-0.8,1.8-1.8v-1C93.2-247.1,92.4-248,91.4-248L91.4-248z"
					/>
			</g>
			<g>
				<path d="M97.6-246.9c0.4,0,0.7,0.3,0.7,0.7v1c0,0.4-0.3,0.7-0.7,0.7h-3.4c-0.4,0-0.7-0.3-0.7-0.7v-1c0-0.4,0.3-0.7,0.7-0.7H97.6
					 M97.6-248h-3.4c-1,0-1.8,0.8-1.8,1.8v1c0,1,0.8,1.8,1.8,1.8h3.4c1,0,1.8-0.8,1.8-1.8v-1C99.4-247.1,98.6-248,97.6-248L97.6-248
					z"/>
			</g>
			<g>
				<path d="M85.2-243.3c0.4,0,0.7,0.3,0.7,0.7v1c0,0.4-0.3,0.7-0.7,0.7h-3.4c-0.4,0-0.7-0.3-0.7-0.7v-1c0-0.4,0.3-0.7,0.7-0.7H85.2
					 M85.2-244.4h-3.4c-1,0-1.8,0.8-1.8,1.8v1c0,1,0.8,1.8,1.8,1.8h3.4c1,0,1.8-0.8,1.8-1.8v-1C87-243.6,86.2-244.4,85.2-244.4
					L85.2-244.4z"/>
			</g>
			<g>
				<path d="M91.4-243.3c0.4,0,0.7,0.3,0.7,0.7v1c0,0.4-0.3,0.7-0.7,0.7H88c-0.4,0-0.7-0.3-0.7-0.7v-1c0-0.4,0.3-0.7,0.7-0.7H91.4
					 M91.4-244.4H88c-1,0-1.8,0.8-1.8,1.8v1c0,1,0.8,1.8,1.8,1.8h3.4c1,0,1.8-0.8,1.8-1.8v-1C93.2-243.6,92.4-244.4,91.4-244.4
					L91.4-244.4z"/>
			</g>
			<g>
				<path d="M97.6-243.3c0.4,0,0.7,0.3,0.7,0.7v1c0,0.4-0.3,0.7-0.7,0.7h-3.4c-0.4,0-0.7-0.3-0.7-0.7v-1c0-0.4,0.3-0.7,0.7-0.7H97.6
					 M97.6-244.4h-3.4c-1,0-1.8,0.8-1.8,1.8v1c0,1,0.8,1.8,1.8,1.8h3.4c1,0,1.8-0.8,1.8-1.8v-1C99.4-243.6,98.6-244.4,97.6-244.4
					L97.6-244.4z"/>
			</g>
			<g>
				<path d="M85.2-239.8c0.4,0,0.7,0.3,0.7,0.7v1c0,0.4-0.3,0.8-0.7,0.8h-3.4c-0.4,0-0.7-0.3-0.7-0.8v-1c0-0.4,0.3-0.7,0.7-0.7H85.2
					 M85.2-240.8h-3.4c-1,0-1.8,0.8-1.8,1.8v1c0,1,0.8,1.8,1.8,1.8h3.4c1,0,1.8-0.8,1.8-1.8v-1C87-240,86.2-240.8,85.2-240.8
					L85.2-240.8z"/>
			</g>
			<g>
				<path d="M91.4-239.8c0.4,0,0.7,0.3,0.7,0.7v1c0,0.4-0.3,0.8-0.7,0.8H88c-0.4,0-0.7-0.3-0.7-0.8v-1c0-0.4,0.3-0.7,0.7-0.7H91.4
					 M91.4-240.8H88c-1,0-1.8,0.8-1.8,1.8v1c0,1,0.8,1.8,1.8,1.8h3.4c1,0,1.8-0.8,1.8-1.8v-1C93.2-240,92.4-240.8,91.4-240.8
					L91.4-240.8z"/>
			</g>
			<g>
				<path d="M97.6-239.8c0.4,0,0.7,0.3,0.7,0.7v1c0,0.4-0.3,0.8-0.7,0.8h-3.4c-0.4,0-0.7-0.3-0.7-0.8v-1c0-0.4,0.3-0.7,0.7-0.7H97.6
					 M97.6-240.8h-3.4c-1,0-1.8,0.8-1.8,1.8v1c0,1,0.8,1.8,1.8,1.8h3.4c1,0,1.8-0.8,1.8-1.8v-1C99.4-240,98.6-240.8,97.6-240.8
					L97.6-240.8z"/>
			</g>
		</g>
	</g>
</g>
<g>
	<g>
		<g>
			<path d="M335.3-243.4c0,0-0.1,0-0.1,0l-4.4-1.3c-0.2,0-0.3-0.2-0.3-0.4l-1.1-4.4c0-0.2,0-0.4,0.1-0.5l3.3-3.2
				c0.1-0.1,0.3-0.2,0.5-0.1l4.4,1.3c0.2,0,0.3,0.2,0.3,0.4l1.1,4.4c0,0.2,0,0.4-0.1,0.5l-3.3,3.2
				C335.6-243.5,335.5-243.4,335.3-243.4z M331.4-245.6l3.8,1.1l2.9-2.8l-1-3.9l-3.8-1.1l-2.9,2.8L331.4-245.6z"/>
		</g>
		<g>
			<path d="M334.2-245.9c-1.1,0-2.1-0.8-2.4-1.9c-0.2-0.6-0.1-1.3,0.3-1.9s0.9-1,1.5-1.1c0.2,0,0.4-0.1,0.6-0.1
				c1.1,0,2.1,0.8,2.4,1.9c0.2,0.6,0.1,1.3-0.3,1.9c-0.3,0.6-0.9,1-1.5,1.1C334.6-245.9,334.4-245.9,334.2-245.9z M334.2-249.8
				c-0.1,0-0.2,0-0.3,0c-0.4,0.1-0.7,0.3-0.9,0.7c-0.2,0.3-0.3,0.7-0.2,1.1c0.2,0.7,0.7,1.1,1.4,1.1c0.1,0,0.2,0,0.3,0
				c0.4-0.1,0.7-0.3,0.9-0.7c0.2-0.3,0.3-0.7,0.2-1.1C335.5-249.4,334.9-249.8,334.2-249.8z"/>
		</g>
	</g>
	<g>
		<g>
			<g>
				<path d="M344.9-243.1c-0.1,0-0.1,0-0.2,0l-4.3-1.9c-0.2-0.1-0.4-0.4-0.3-0.6c0.1-0.2,0.4-0.4,0.6-0.3l4.3,1.9
					c0.2,0.1,0.4,0.4,0.3,0.6C345.3-243.2,345.1-243.1,344.9-243.1z"/>
			</g>
			<g>
				<path d="M343.6-241.8c-0.1,0-0.1,0-0.2,0l-4.3-1.9c-0.2-0.1-0.4-0.4-0.3-0.6c0.1-0.2,0.4-0.4,0.6-0.3l4.3,1.9
					c0.2,0.1,0.4,0.4,0.3,0.6C344-241.9,343.8-241.8,343.6-241.8z"/>
			</g>
			<g>
				<path d="M342.3-240.5c-0.1,0-0.1,0-0.2,0l-4.3-1.9c-0.2-0.1-0.4-0.4-0.3-0.6c0.1-0.2,0.4-0.4,0.6-0.3l4.3,1.9
					c0.2,0.1,0.4,0.4,0.3,0.6C342.7-240.6,342.5-240.5,342.3-240.5z"/>
			</g>
			<g>
				<path d="M341-239.2c-0.1,0-0.1,0-0.2,0l-4.3-1.9c-0.2-0.1-0.4-0.4-0.3-0.6c0.1-0.2,0.4-0.4,0.6-0.3l4.3,1.9
					c0.2,0.1,0.4,0.4,0.3,0.6C341.4-239.3,341.2-239.2,341-239.2z"/>
			</g>
		</g>
		<g>
			<path d="M338.6-236.8c-0.1,0-0.3-0.1-0.3-0.1l-3-3c-0.2-0.2-0.2-0.5,0-0.7l10-10c0.2-0.2,0.5-0.2,0.7,0l3,3
				c0.1,0.1,0.1,0.2,0.1,0.3s-0.1,0.3-0.1,0.3l-10,10C338.9-236.9,338.7-236.8,338.6-236.8z M336.3-240.4l2.3,2.3l9.3-9.3l-2.3-2.3
				L336.3-240.4z"/>
		</g>
		<g>
			<path d="M333.7-235c-0.1,0-0.3-0.1-0.3-0.1c-0.1-0.1-0.2-0.3-0.1-0.4c0-0.3,0.3-3,0.7-3.9c0.1-0.1,0.2-0.3,0.4-0.3
				c0.2,0,0.3,0,0.4,0.1l3,3c0.1,0.1,0.2,0.3,0.1,0.4c0,0.2-0.1,0.3-0.3,0.4C336.8-235.3,334.1-235,333.7-235
				C333.8-235,333.8-235,333.7-235z M334.6-238.3c-0.1,0.7-0.3,1.6-0.3,2.2c0.7-0.1,1.5-0.2,2.2-0.3L334.6-238.3z"/>
		</g>
		<g>
			<path d="M350.3-245.3c-0.1,0-0.3-0.1-0.3-0.1l-6.2-6.2c-0.2-0.2-0.2-0.5,0-0.7l2.1-2.1c0.2-0.2,0.5-0.2,0.7,0l6.2,6.2
				c0.2,0.2,0.2,0.5,0,0.7l-2.1,2.1C350.5-245.4,350.4-245.3,350.3-245.3z M344.8-252l5.5,5.5l1.4-1.4l-5.5-5.5L344.8-252z"/>
		</g>
	</g>
</g>
<g>
	<g>
		<path d="M341.7-318c-0.1,0-0.2-0.1-0.3-0.2l-3.3-5.7c-0.1-0.2,0-0.4,0.1-0.5c0.2-0.1,0.4,0,0.5,0.1l3.3,5.7c0.1,0.2,0,0.4-0.1,0.5
			C341.8-318,341.8-318,341.7-318z"/>
	</g>
	<g>
		<path d="M343.5-318c-0.1,0-0.2-0.1-0.3-0.2l-3.3-5.7c-0.1-0.2,0-0.4,0.1-0.5c0.2-0.1,0.4,0,0.5,0.1l3.3,5.7c0.1,0.2,0,0.4-0.1,0.5
			C343.7-318,343.6-318,343.5-318z"/>
	</g>
	<g>
		<path d="M339.9-318c-0.1,0-0.2-0.1-0.3-0.2l-5.3-9.2c-0.1-0.2,0-0.4,0.1-0.5c0.2-0.1,0.4,0,0.5,0.1l5.3,9.2c0.1,0.2,0,0.4-0.1,0.5
			C340-318,340-318,339.9-318z"/>
	</g>
	<g>
		<path d="M339.9-318c-0.1,0-0.2-0.1-0.3-0.2l-5.3-9.2c-0.1-0.2,0-0.4,0.1-0.5c0.2-0.1,0.4,0,0.5,0.1l5.3,9.2c0.1,0.2,0,0.4-0.1,0.5
			C340-318,340-318,339.9-318z"/>
	</g>
	<g>
		<g>
			<path d="M343.8-321c-0.1,0-0.1,0-0.2-0.1c-0.2-0.1-0.2-0.3-0.1-0.5l2.4-4.1c0.1-0.2,0.3-0.2,0.5-0.1c0.2,0.1,0.2,0.3,0.1,0.5
				l-2.4,4.1C344.1-321,343.9-321,343.8-321z"/>
		</g>
		<g>
			<path d="M352.1-320.8h-8.3c-0.2,0-0.4-0.2-0.4-0.4s0.2-0.4,0.4-0.4h8.3c0.2,0,0.4,0.2,0.4,0.4S352.3-320.8,352.1-320.8z"/>
		</g>
	</g>
	<g>
		<path d="M347.4-314.5c-0.1,0-0.2-0.1-0.3-0.2l-5.3-9.2c-0.1-0.2,0-0.4,0.1-0.5c0.2-0.1,0.4,0,0.5,0.1l5.3,9.2
			c0.1,0.2,0,0.4-0.1,0.5C347.5-314.5,347.4-314.5,347.4-314.5z"/>
	</g>
	<g>
		<g>
			<path d="M335.5-316.6c-0.1,0-0.1,0-0.2-0.1c-0.2-0.1-0.2-0.3-0.1-0.5l2.4-4.1c0.1-0.2,0.3-0.2,0.5-0.1c0.2,0.1,0.2,0.3,0.1,0.5
				l-2.4,4.1C335.7-316.6,335.6-316.6,335.5-316.6z"/>
		</g>
		<g>
			<path d="M338-320.9h-8.3c-0.2,0-0.4-0.2-0.4-0.4s0.2-0.4,0.4-0.4h8.3c0.2,0,0.4,0.2,0.4,0.4S338.2-320.9,338-320.9z"/>
		</g>
	</g>
</g>
</svg>
