<?xml version="1.0" encoding="utf-8"?>
<!-- Generator: Adobe Illustrator 18.0.0, SVG Export Plug-In . SVG Version: 6.00 Build 0)  -->
<!DOCTYPE svg PUBLIC "-//W3C//DTD SVG 1.1 Tiny//EN" "http://www.w3.org/Graphics/SVG/1.1/DTD/svg11-tiny.dtd">
<svg version="1.1" baseProfile="tiny" id="Layer_1" xmlns="http://www.w3.org/2000/svg" xmlns:xlink="http://www.w3.org/1999/xlink"
	 x="0px" y="0px" viewBox="0 0 330 330" xml:space="preserve">
<g>
	<path d="M-266-222.8c0,14.3-11.6,25.8-25.8,25.8h-268.4c-14.3,0-25.8-11.6-25.8-25.8v-268.4c0-14.3,11.6-25.8,25.8-25.8h268.4
		c14.3,0,25.8,11.6,25.8,25.8V-222.8z M-276-491.5c0-8.6-6.9-15.5-15.5-15.5h-268c-8.6,0-15.5,6.9-15.5,15.5v268
		c0,8.6,6.9,15.5,15.5,15.5h268c8.6,0,15.5-6.9,15.5-15.5V-491.5z"/>
</g>
<g>
	<path d="M422-216.8c0,14.3-11.6,25.8-25.8,25.8H127.8c-14.3,0-25.8-11.6-25.8-25.8v-268.4c0-14.3,11.6-25.8,25.8-25.8h268.4
		c14.3,0,25.8,11.6,25.8,25.8V-216.8z M412-485.5c0-8.6-6.9-15.5-15.5-15.5h-268c-8.6,0-15.5,6.9-15.5,15.5v268
		c0,8.6,6.9,15.5,15.5,15.5h268c8.6,0,15.5-6.9,15.5-15.5V-485.5z"/>
</g>
<g>
	<path d="M91-216.8c0,14.3-11.6,25.8-25.8,25.8h-268.4c-14.3,0-25.8-11.6-25.8-25.8v-268.4c0-14.3,11.6-25.8,25.8-25.8H65.2
		c14.3,0,25.8,11.6,25.8,25.8V-216.8z M81-485.5c0-8.6-6.9-15.5-15.5-15.5h-268c-8.6,0-15.5,6.9-15.5,15.5v268
		c0,8.6,6.9,15.5,15.5,15.5h268c8.6,0,15.5-6.9,15.5-15.5V-485.5z"/>
</g>
<g>
	<g>
		<g>
			<path d="M-400.8-443h-41c-18.3,0-30.9,4-42.3,13.4c-9,7.7-14.3,18.9-14.3,30c0,17.1,13,35.2,37.1,35.2c2.3,0,4.9-0.2,7.2-0.4
				l-0.3,0.8c-1,2.3-1.9,4.5-1.9,7.9c0,6.7,3.2,10.8,6.3,14.7l0.4,0.5l-0.7,0c-10,0.7-28.5,2-42,10.3c-16,9.5-17.2,23.3-17.2,27.4
				c0,16,14.9,32.1,48.1,32.1c38.6,0,58.9-21.3,58.9-42.4c0-15.6-9.1-23.3-18.8-31.4l-8.2-6.4c-2.5-2.1-5.7-4.7-5.7-9.5
				c0-4.7,3.1-7.9,5.9-10.6l0.3-0.3c8.8-7,18.8-14.8,18.8-31.9c0-17.1-10.7-26-15.9-30.3h13.6c0.2,0,0.3,0,0.5-0.1l11.7-7.4
				c0.3-0.2,0.5-0.6,0.4-1C-400-442.7-400.4-443-400.8-443z M-450.5-280.4c-23.6,0-39.4-11-39.4-27.4c0-10.7,6.5-18.5,19.2-23.1
				c10.2-3.4,23.4-3.6,23.5-3.6c2.2,0,3.4,0,5.1,0.2c16.5,11.7,24.4,17.9,24.4,29.6C-417.6-289.7-430.2-280.4-450.5-280.4z
				 M-450.7-370.6c-19.8,0-28-26-28-39.9c0-7.1,1.6-12.5,4.9-16.6c3.6-4.5,9.7-7.4,15.7-7.4c18.1,0,28.2,24.4,28.2,41.3
				c0,2.7,0,10.8-5.6,16.4C-439.3-373.1-445.4-370.6-450.7-370.6z"/>
		</g>
		<g>
			<path d="M-343.3-362.7h-21.6v-21.5c0-0.5-0.4-0.9-0.9-0.9h-9.3c-0.5,0-0.9,0.4-0.9,0.9v21.5h-21.5c-0.5,0-0.9,0.4-0.9,0.9v9.4
				c0,0.5,0.4,0.9,0.9,0.9h21.5v21.7c0,0.5,0.4,0.9,0.9,0.9h9.3c0.5,0,0.9-0.4,0.9-0.9v-21.7h21.6c0.5,0,0.9-0.4,0.9-0.9v-9.4
				C-342.4-362.3-342.8-362.7-343.3-362.7z"/>
		</g>
	</g>
</g>
<g>
	<g id="Layer_8_4_">
		<g>
			<path d="M-110.9-426.8c1.2-0.7,2.6-1.1,4-1.1c1.4,0,2.7,0.4,4,1.1l94.9,68.9c2.5,1.4,4,4.1,4,6.9c0,2.8-1.5,5.5-4,6.9l-94.9,68.9
				c-2.5,1.4-5.5,1.4-8,0c-2.5-1.4-4-4.1-4-6.9v-137.9C-114.9-422.8-113.4-425.4-110.9-426.8z"/>
		</g>
	</g>
</g>
<g>
	<g>
		<path d="M310.9-443l-22.4,0c-25.2,0-41.4,16.7-41.4,42.5v19.6h-22.5c-1.9,0-3.5,1.6-3.5,3.5v28.4c0,1.9,1.6,3.5,3.5,3.5H247v71.7
			c0,1.9,1.6,3.5,3.5,3.5h29.4c1.9,0,3.5-1.6,3.5-3.5v-71.7h26.3c1.9,0,3.5-1.6,3.5-3.5l0-28.4c0-0.9-0.4-1.8-1-2.5
			c-0.7-0.7-1.6-1-2.5-1h-26.4v-16.6c0-8,1.9-12,12.3-12l15.1,0c1.9,0,3.5-1.6,3.5-3.5v-26.4C314.4-441.4,312.8-443,310.9-443z"/>
	</g>
</g>
<g>
	<g>
		<path d="M206.5,201.5c-0.4,0.2-0.7,0.4-1,0.6c18.6,9,48.2,18.6,77,19.3c7.9-14,15.1-28.5,20-44c-26.5,11.5-55.1,16.2-85.5,17.7
			C213.5,197.3,210,199.4,206.5,201.5z"/>
		<path d="M233.8,183c27.1-4.4,57.2-15.2,74.1-26c4.3-18.2,6.6-37.2,6.6-56.6c0-8.2-0.4-16.3-1.2-24.3
			C296.9,118.6,269.2,155.5,233.8,183z"/>
		<path d="M277.3,228.6c-31.8,0-62.2-6-90.1-17c-16.7-6.6-32.6-14.9-47.3-24.8c-0.1-0.1-0.3-0.2-0.4-0.3
			C80.1,146.4,39.1,81.2,31.8,6.1c-10.5,27.3-16.2,57-16.2,88c0,4.3,0.1,8.6,0.3,12.9c0.2,3,0.4,6,0.7,9c0.9,9.7,2.2,19.5,4.2,29.2
			c0.6,2.8,0.3,1.8,0.6,2.8c17.3,18.2,53,40.7,61.9,47.1c-9.1-1.8-43-18.2-56.5-27.1c7.7,24.7,19.3,49.1,34.9,69.8
			c11.2,4.7,32.9,15.4,40.6,18c-9.9-1-23.7-4.9-32.6-7.5c25.8,32.2,59.4,57.7,98,73.8c1.5,0.6,3,1.2,4.4,1.8
			c7.2-3.4,14.3-7.1,21.1-11.2c34.8-20.6,64.2-49.6,85.2-84.2C278.1,228.5,277.7,228.6,277.3,228.6z"/>
	</g>
</g>
</svg>
