<?xml version="1.0" encoding="utf-8"?>
<!-- Generator: Adobe Illustrator 18.0.0, SVG Export Plug-In . SVG Version: 6.00 Build 0)  -->
<!DOCTYPE svg PUBLIC "-//W3C//DTD SVG 1.1 Tiny//EN" "http://www.w3.org/Graphics/SVG/1.1/DTD/svg11-tiny.dtd">
<svg version="1.1" baseProfile="tiny" id="Layer_1" xmlns="http://www.w3.org/2000/svg" xmlns:xlink="http://www.w3.org/1999/xlink"
	 x="0px" y="0px" viewBox="0 0 330 330" xml:space="preserve">
<g>
	<path d="M-321-56.8c0,14.3-11.6,25.8-25.8,25.8h-268.4c-14.3,0-25.8-11.6-25.8-25.8v-268.4c0-14.3,11.6-25.8,25.8-25.8h268.4
		c14.3,0,25.8,11.6,25.8,25.8V-56.8z M-331-325.5c0-8.6-6.9-15.5-15.5-15.5h-268c-8.6,0-15.5,6.9-15.5,15.5v268
		c0,8.6,6.9,15.5,15.5,15.5h268c8.6,0,15.5-6.9,15.5-15.5V-325.5z"/>
</g>
<g>
	<path d="M494-148.8c0,14.3-11.6,25.8-25.8,25.8H199.8c-14.3,0-25.8-11.6-25.8-25.8v-268.4c0-14.3,11.6-25.8,25.8-25.8h268.4
		c14.3,0,25.8,11.6,25.8,25.8V-148.8z M484-417.5c0-8.6-6.9-15.5-15.5-15.5h-268c-8.6,0-15.5,6.9-15.5,15.5v268
		c0,8.6,6.9,15.5,15.5,15.5h268c8.6,0,15.5-6.9,15.5-15.5V-417.5z"/>
</g>
<g>
	<path d="M325,299.2c0,14.3-11.6,25.8-25.8,25.8H30.8C16.6,325,5,313.4,5,299.2V30.8C5,16.6,16.6,5,30.8,5h268.4
		C313.4,5,325,16.6,325,30.8V299.2z M315,30.5c0-8.6-6.9-15.5-15.5-15.5h-268C22.9,15,16,21.9,16,30.5v268c0,8.6,6.9,15.5,15.5,15.5
		h268c8.6,0,15.5-6.9,15.5-15.5V30.5z"/>
</g>
<g>
	<g>
		<g>
			<path d="M-449.4-283.3h-41c-18.3,0-30.9,4-42.3,13.4c-9,7.7-14.3,18.9-14.3,30c0,17.1,13,35.2,37.1,35.2c2.3,0,4.9-0.2,7.2-0.4
				l-0.3,0.8c-1,2.3-1.9,4.5-1.9,7.9c0,6.7,3.2,10.8,6.3,14.7l0.4,0.5l-0.7,0c-10,0.7-28.5,2-42,10.3c-16,9.5-17.2,23.3-17.2,27.4
				c0,16,14.9,32.1,48.1,32.1c38.6,0,58.9-21.3,58.9-42.4c0-15.6-9.1-23.3-18.8-31.4l-8.2-6.4c-2.5-2.1-5.7-4.7-5.7-9.5
				c0-4.7,3.1-7.9,5.9-10.6l0.3-0.3c8.8-7,18.8-14.8,18.8-31.9c0-17.1-10.7-26-15.9-30.3h13.6c0.2,0,0.3,0,0.5-0.1l11.7-7.4
				c0.3-0.2,0.5-0.6,0.4-1C-448.7-283-449-283.3-449.4-283.3z M-499.1-120.8c-23.6,0-39.4-11-39.4-27.4c0-10.7,6.5-18.5,19.2-23.1
				c10.2-3.4,23.4-3.6,23.5-3.6c2.2,0,3.4,0,5.1,0.2c16.5,11.7,24.4,17.9,24.4,29.6C-466.2-130.1-478.8-120.8-499.1-120.8z
				 M-499.4-210.9c-19.8,0-28-26-28-39.9c0-7.1,1.6-12.5,4.9-16.6c3.6-4.5,9.7-7.4,15.7-7.4c18.1,0,28.2,24.4,28.2,41.3
				c0,2.7,0,10.8-5.6,16.4C-487.9-213.5-494-210.9-499.4-210.9z"/>
		</g>
		<g>
			<path d="M-391.9-203h-21.6v-21.5c0-0.5-0.4-0.9-0.9-0.9h-9.3c-0.5,0-0.9,0.4-0.9,0.9v21.5h-21.5c-0.5,0-0.9,0.4-0.9,0.9v9.4
				c0,0.5,0.4,0.9,0.9,0.9h21.5v21.7c0,0.5,0.4,0.9,0.9,0.9h9.3c0.5,0,0.9-0.4,0.9-0.9v-21.7h21.6c0.5,0,0.9-0.4,0.9-0.9v-9.4
				C-391.1-202.6-391.5-203-391.9-203z"/>
		</g>
	</g>
</g>
<g>
	<g id="Layer_8_4_">
		<g>
			<path d="M123.1,89.2c1.2-0.7,2.6-1.1,4-1.1c1.4,0,2.7,0.4,4,1.1l94.9,68.9c2.5,1.4,4,4.1,4,6.9c0,2.8-1.5,5.5-4,6.9L131,240.8
				c-2.5,1.4-5.5,1.4-8,0c-2.5-1.4-4-4.1-4-6.9V96.1C119.1,93.2,120.6,90.6,123.1,89.2z"/>
		</g>
	</g>
</g>
<g>
	<g>
		<path d="M382.9-375l-22.4,0c-25.2,0-41.4,16.7-41.4,42.5v19.6h-22.5c-1.9,0-3.5,1.6-3.5,3.5v28.4c0,1.9,1.6,3.5,3.5,3.5H319v71.7
			c0,1.9,1.6,3.5,3.5,3.5h29.4c1.9,0,3.5-1.6,3.5-3.5v-71.7h26.3c1.9,0,3.5-1.6,3.5-3.5l0-28.4c0-0.9-0.4-1.8-1-2.5
			c-0.7-0.7-1.6-1-2.5-1h-26.4v-16.6c0-8,1.9-12,12.3-12l15.1,0c1.9,0,3.5-1.6,3.5-3.5v-26.4C386.4-373.4,384.8-375,382.9-375z"/>
	</g>
</g>
</svg>
