<?xml version="1.0" encoding="utf-8"?>
<!-- Generator: Adobe Illustrator 18.0.0, SVG Export Plug-In . SVG Version: 6.00 Build 0)  -->
<!DOCTYPE svg PUBLIC "-//W3C//DTD SVG 1.1 Tiny//EN" "http://www.w3.org/Graphics/SVG/1.1/DTD/svg11-tiny.dtd">
<svg version="1.1" baseProfile="tiny" id="Layer_1" xmlns="http://www.w3.org/2000/svg" xmlns:xlink="http://www.w3.org/1999/xlink"
	 x="0px" y="0px" viewBox="0 0 330 330" xml:space="preserve">
<g>
	<path d="M39.7,100.6c18.2-27.7,46.5-48.2,79.6-56.2c2.6-0.6,4.7-2.4,5.6-4.8c1-2.4,0.8-5.2-0.6-7.4C113.8,15.2,95,4,73.5,4
		c-33.2,0-60,26.9-60,60c0,14.1,4.9,27,13,37.2c1.6,2.1,4.1,3.2,6.8,3.1S38.3,102.8,39.7,100.6z"/>
	<path d="M256.5,4c-21.3,0-40.1,11.2-50.7,28c-1.4,2.2-1.7,5-0.7,7.5c1,2.5,3.1,4.3,5.7,4.9c33.2,7.8,61.7,28.1,80,55.8
		c1.5,2.2,3.9,3.6,6.5,3.6c2.6,0.1,5.1-1.1,6.8-3.2c7.8-10.1,12.4-22.7,12.4-36.5C316.5,30.8,289.6,4,256.5,4z"/>
	<path d="M297.7,187.8c0-23.2-6-45-16.5-63.9c-19.5-35.1-54.5-60.3-95.7-66.7c-6.6-1-13.2-1.7-20.1-1.7c-7.1,0-14.1,0.7-21,1.8
		c-41,6.6-75.8,31.9-95.1,67.1c-10.3,18.8-16.2,40.4-16.2,63.4c0,39.3,17.3,74.6,44.6,98.8l-11.1,15.7c-4.8,6.8-3.2,16.1,3.6,20.9
		c2.6,1.9,5.7,2.8,8.7,2.8c4.7,0,9.3-2.2,12.2-6.3l11.1-15.7c18.8,10.3,40.3,16.1,63.2,16.1c22.9,0,44.4-5.8,63.2-16.1l11.1,15.7
		c2.9,4.1,7.5,6.3,12.2,6.3c3,0,6-0.9,8.7-2.8c6.8-4.8,8.4-14.2,3.6-20.9l-11.1-15.7C280.4,262.4,297.7,227.1,297.7,187.8z
		 M165.5,283.1c-52.5,0-95.3-42.7-95.3-95.3c0-16.4,4.2-31.8,11.5-45.3c13.9-25.6,39.3-44.1,69.1-48.8c4.8-0.7,9.7-1.3,14.7-1.3
		c4.7,0,9.3,0.5,13.9,1.1c30.1,4.4,55.8,22.9,69.8,48.6c7.4,13.5,11.6,29,11.6,45.5C260.7,240.4,218,283.1,165.5,283.1z"/>
	<path d="M218.8,210.1l-36.3-22.4c-0.8-4.2-3.1-7.9-6.3-10.5l1.7-45.6c0.2-5.8-4.3-10.7-10.2-10.9c-5.8-0.3-10.7,4.3-10.9,10.2
		l-1.7,45.7c-4.5,3.2-7.5,8.4-7.5,14.4c0,9.7,7.9,17.6,17.6,17.6c2.8,0,5.3-0.7,7.7-1.8l34.9,21.5c1.7,1.1,3.7,1.6,5.5,1.6
		c3.5,0,7-1.8,9-5C225.4,219.7,223.8,213.2,218.8,210.1z"/>
</g>
<g>
	<path d="M710.2,11.8L681.4-17c-3-3-6.9-4.5-10.8-4.5c-3.9,0-7.8,1.5-10.8,4.5L636.7,6l50.4,50.3l23.1-23
		C716.1,27.4,716.1,17.7,710.2,11.8z"/>
	<polygon points="487,155.4 537.4,205.8 676.3,67.1 625.9,16.8 	"/>
	<polygon points="476.1,166.2 465.3,227.3 526.5,216.5 	"/>
	<path d="M615.5,254.5H425.4V64.3h134.2l33.1-33H413.7c-11.7,0-21.3,9.6-21.3,21.3v213.5c0,11.7,9.6,21.3,21.3,21.3h213.5
		c11.7,0,21.3-9.6,21.3-21.3V113.5l-33,33L615.5,254.5L615.5,254.5z"/>
</g>
</svg>
