<?xml version="1.0" encoding="utf-8"?>
<!-- Generator: Adobe Illustrator 18.0.0, SVG Export Plug-In . SVG Version: 6.00 Build 0)  -->
<!DOCTYPE svg PUBLIC "-//W3C//DTD SVG 1.1 Tiny//EN" "http://www.w3.org/Graphics/SVG/1.1/DTD/svg11-tiny.dtd">
<svg version="1.1" baseProfile="tiny" id="Layer_1" xmlns="http://www.w3.org/2000/svg" xmlns:xlink="http://www.w3.org/1999/xlink"
	 x="0px" y="0px" viewBox="0 0 330 330" xml:space="preserve">
<g>
	<path d="M-66.8,174.5c0.8-1.2,2-2.1,3.5-2.4c0.1,0,0.2-0.1,0.2-0.2c0-0.1,0-0.2,0-0.3c-0.5-0.7-1.3-1.2-2.2-1.2
		c-1.4,0-2.6,1.2-2.6,2.6c0,0.6,0.2,1.2,0.6,1.6c0.1,0.1,0.2,0.1,0.3,0.1C-66.9,174.7-66.8,174.6-66.8,174.5z"/>
	<path d="M-57.4,170.3c-0.9,0-1.7,0.5-2.2,1.2c-0.1,0.1-0.1,0.2,0,0.3c0,0.1,0.1,0.2,0.2,0.2c1.4,0.3,2.7,1.2,3.5,2.4
		c0.1,0.1,0.2,0.2,0.3,0.2c0.1,0,0.2,0,0.3-0.1c0.3-0.4,0.5-1,0.5-1.6C-54.7,171.5-55.9,170.3-57.4,170.3z"/>
	<path d="M-55.6,178.3c0-1-0.3-2-0.7-2.8c-0.8-1.5-2.4-2.6-4.2-2.9c-0.3,0-0.6-0.1-0.9-0.1c-0.3,0-0.6,0-0.9,0.1
		c-1.8,0.3-3.3,1.4-4.1,2.9c-0.4,0.8-0.7,1.8-0.7,2.8c0,1.7,0.8,3.2,1.9,4.3l-0.5,0.7c-0.2,0.3-0.1,0.7,0.2,0.9
		c0.1,0.1,0.2,0.1,0.4,0.1c0.2,0,0.4-0.1,0.5-0.3l0.5-0.7c0.8,0.4,1.8,0.7,2.7,0.7c1,0,1.9-0.3,2.7-0.7l0.5,0.7
		c0.1,0.2,0.3,0.3,0.5,0.3c0.1,0,0.3,0,0.4-0.1c0.3-0.2,0.4-0.6,0.2-0.9l-0.5-0.7C-56.3,181.5-55.6,180-55.6,178.3z M-61.3,182.4
		c-2.3,0-4.1-1.9-4.1-4.1c0-0.7,0.2-1.4,0.5-2c0.6-1.1,1.7-1.9,3-2.1c0.2,0,0.4-0.1,0.6-0.1c0.2,0,0.4,0,0.6,0c1.3,0.2,2.4,1,3,2.1
		c0.3,0.6,0.5,1.3,0.5,2C-57.2,180.6-59,182.4-61.3,182.4z"/>
	<path d="M-59,179.3l-1.6-1c0-0.2-0.1-0.3-0.3-0.5l0.1-2c0-0.3-0.2-0.5-0.4-0.5c-0.3,0-0.5,0.2-0.5,0.4l-0.1,2
		c-0.2,0.1-0.3,0.4-0.3,0.6c0,0.4,0.3,0.8,0.8,0.8c0.1,0,0.2,0,0.3-0.1l1.5,0.9c0.1,0,0.2,0.1,0.2,0.1c0.2,0,0.3-0.1,0.4-0.2
		C-58.7,179.7-58.8,179.4-59,179.3z"/>
</g>
<g>
	<path d="M321.7,43.8L292.9,15c-3-3-6.9-4.5-10.8-4.5c-3.9,0-7.8,1.5-10.8,4.5l-23.1,23l50.4,50.3l23.1-23
		C327.6,59.4,327.6,49.7,321.7,43.8z"/>
	<polygon points="98.5,187.4 148.9,237.8 287.8,99.1 237.4,48.8 	"/>
	<polygon points="87.6,198.2 76.8,259.3 138,248.5 	"/>
	<path d="M227,286.5H36.9V96.3H171l33.1-33H25.2c-11.7,0-21.3,9.6-21.3,21.3v213.5c0,11.7,9.6,21.3,21.3,21.3h213.5
		c11.7,0,21.3-9.6,21.3-21.3V145.5l-33,33L227,286.5L227,286.5z"/>
</g>
</svg>
